<svg width="12" height="12" viewBox="0 0 12 12" fill="none" xmlns="http://www.w3.org/2000/svg">
<g id="icons">
<circle id="Ellipse 14" cx="6.25" cy="6.25" r="4.25" fill="white"/>
<path id="Icon" fill-rule="evenodd" clip-rule="evenodd" d="M6 12C9.31371 12 12 9.31371 12 6C12 2.68629 9.31371 0 6 0C2.68629 0 0 2.68629 0 6C0 9.31371 2.68629 12 6 12ZM3.78033 5.46967L5.25 6.93934L8.21967 3.96967C8.51256 3.67678 8.98744 3.67678 9.28033 3.96967C9.57322 4.26256 9.57322 4.73744 9.28033 5.03033L5.78033 8.53033C5.48744 8.82322 5.01256 8.82322 4.71967 8.53033L2.71967 6.53033C2.42678 6.23744 2.42678 5.76256 2.71967 5.46967C3.01256 5.17678 3.48744 5.17678 3.78033 5.46967Z" fill="#27AE60"/>
</g>
</svg>
