<svg width="29" height="29" viewBox="0 0 29 29" fill="none" xmlns="http://www.w3.org/2000/svg">
<g id="ep:arrow-right-bold">
<path id="Vector" d="M9.9951 3.26463C9.66371 3.59612 9.47754 4.04566 9.47754 4.51439C9.47754 4.98312 9.66371 5.43266 9.9951 5.76415L18.7452 14.5143L9.9951 23.2644C9.6731 23.5978 9.49492 24.0443 9.49895 24.5078C9.50298 24.9713 9.68888 25.4146 10.0166 25.7424C10.3444 26.0701 10.7877 26.256 11.2512 26.26C11.7147 26.2641 12.1612 26.0859 12.4946 25.7639L22.4945 15.764C22.8259 15.4325 23.0121 14.983 23.0121 14.5143C23.0121 14.0455 22.8259 13.596 22.4945 13.2645L12.4946 3.26463C12.1631 2.93324 11.7136 2.74707 11.2449 2.74707C10.7761 2.74707 10.3266 2.93324 9.9951 3.26463Z" fill="#5F2BD3"/>
</g>
</svg>
