<svg width="71" height="29" viewBox="0 0 71 29" fill="none" xmlns="http://www.w3.org/2000/svg">
<path d="M9.37547 3.26463C9.04408 3.59612 8.85791 4.04566 8.85791 4.51439C8.85791 4.98312 9.04408 5.43266 9.37547 5.76415L18.1256 14.5143L9.37547 23.2644C9.05347 23.5978 8.87529 24.0443 8.87932 24.5078C8.88335 24.9713 9.06926 25.4146 9.397 25.7424C9.72475 26.0701 10.1681 26.256 10.6316 26.26C11.0951 26.2641 11.5416 26.0859 11.875 25.7639L21.8749 15.764C22.2063 15.4325 22.3924 14.983 22.3924 14.5143C22.3924 14.0455 22.2063 13.596 21.8749 13.2645L11.875 3.26463C11.5435 2.93324 11.094 2.74707 10.6252 2.74707C10.1565 2.74707 9.70696 2.93324 9.37547 3.26463Z" fill="#DC128A"/>
<path d="M23.5166 3.26463C23.1852 3.59612 22.999 4.04566 22.999 4.51439C22.999 4.98312 23.1852 5.43266 23.5166 5.76415L32.2667 14.5143L23.5166 23.2644C23.1946 23.5978 23.0164 24.0443 23.0204 24.5078C23.0245 24.9713 23.2104 25.4146 23.5381 25.7424C23.8659 26.0701 24.3092 26.256 24.7727 26.26C25.2362 26.2641 25.6827 26.0859 26.0161 25.7639L36.016 15.764C36.3474 15.4325 36.5335 14.983 36.5335 14.5143C36.5335 14.0455 36.3474 13.596 36.016 13.2645L26.0161 3.26463C25.6846 2.93324 25.2351 2.74707 24.7663 2.74707C24.2976 2.74707 23.8481 2.93324 23.5166 3.26463Z" fill="#DA128C"/>
<path d="M37.6577 3.26463C37.3263 3.59612 37.1401 4.04566 37.1401 4.51439C37.1401 4.98312 37.3263 5.43266 37.6577 5.76415L46.4078 14.5143L37.6577 23.2644C37.3357 23.5978 37.1575 24.0443 37.1615 24.5078C37.1656 24.9713 37.3515 25.4146 37.6792 25.7424C38.007 26.0701 38.4503 26.256 38.9138 26.26C39.3773 26.2641 39.8238 26.0859 40.1572 25.7639L50.1571 15.764C50.4885 15.4325 50.6747 14.983 50.6747 14.5143C50.6747 14.0455 50.4885 13.596 50.1571 13.2645L40.1572 3.26463C39.8257 2.93324 39.3762 2.74707 38.9075 2.74707C38.4387 2.74707 37.9892 2.93324 37.6577 3.26463Z" fill="#D8128D"/>
<path d="M51.8008 3.26463C51.4694 3.59612 51.2832 4.04566 51.2832 4.51439C51.2832 4.98312 51.4694 5.43266 51.8008 5.76415L60.5509 14.5143L51.8008 23.2644C51.4788 23.5978 51.3006 24.0443 51.3046 24.5078C51.3086 24.9713 51.4945 25.4146 51.8223 25.7424C52.15 26.0701 52.5934 26.256 53.0569 26.26C53.5204 26.2641 53.9669 26.0859 54.3003 25.7639L64.3002 15.764C64.6316 15.4325 64.8177 14.983 64.8177 14.5143C64.8177 14.0455 64.6316 13.596 64.3002 13.2645L54.3003 3.26463C53.9688 2.93324 53.5193 2.74707 53.0505 2.74707C52.5818 2.74707 52.1323 2.93324 51.8008 3.26463Z" fill="#D8128D"/>
</svg>
