<svg width="29" height="29" viewBox="0 0 29 29" fill="none" xmlns="http://www.w3.org/2000/svg">
<g id="ep:arrow-right-bold">
<path id="Vector" d="M9.37547 3.26463C9.04408 3.59612 8.85791 4.04566 8.85791 4.51439C8.85791 4.98312 9.04408 5.43266 9.37547 5.76415L18.1256 14.5143L9.37547 23.2644C9.05347 23.5978 8.87529 24.0443 8.87932 24.5078C8.88335 24.9713 9.06926 25.4146 9.397 25.7424C9.72475 26.0701 10.1681 26.256 10.6316 26.26C11.0951 26.2641 11.5416 26.0859 11.875 25.7639L21.8749 15.764C22.2063 15.4325 22.3924 14.983 22.3924 14.5143C22.3924 14.0455 22.2063 13.596 21.8749 13.2645L11.875 3.26463C11.5435 2.93324 11.094 2.74707 10.6252 2.74707C10.1565 2.74707 9.70696 2.93324 9.37547 3.26463Z" fill="#DC128A"/>
</g>
</svg>
