<svg width="71" height="29" viewBox="0 0 71 29" fill="none" xmlns="http://www.w3.org/2000/svg">
<path d="M9.53709 3.26463C9.2057 3.59612 9.01953 4.04566 9.01953 4.51439C9.01953 4.98312 9.2057 5.43266 9.53709 5.76415L18.2872 14.5143L9.53709 23.2644C9.21509 23.5978 9.03691 24.0443 9.04094 24.5078C9.04497 24.9713 9.23088 25.4146 9.55862 25.7424C9.88637 26.0701 10.3297 26.256 10.7932 26.26C11.2567 26.2641 11.7032 26.0859 12.0366 25.7639L22.0365 15.764C22.3679 15.4325 22.554 14.983 22.554 14.5143C22.554 14.0455 22.3679 13.596 22.0365 13.2645L12.0366 3.26463C11.7051 2.93324 11.2556 2.74707 10.7869 2.74707C10.3181 2.74707 9.86858 2.93324 9.53709 3.26463Z" fill="#C21799"/>
<path d="M23.6787 3.26463C23.3473 3.59612 23.1611 4.04566 23.1611 4.51439C23.1611 4.98312 23.3473 5.43266 23.6787 5.76415L32.4288 14.5143L23.6787 23.2644C23.3567 23.5978 23.1785 24.0443 23.1825 24.5078C23.1866 24.9713 23.3725 25.4146 23.7002 25.7424C24.028 26.0701 24.4713 26.256 24.9348 26.26C25.3983 26.2641 25.8448 26.0859 26.1782 25.7639L36.1781 15.764C36.5095 15.4325 36.6956 14.983 36.6956 14.5143C36.6956 14.0455 36.5095 13.596 36.1781 13.2645L26.1782 3.26463C25.8467 2.93324 25.3972 2.74707 24.9285 2.74707C24.4597 2.74707 24.0102 2.93324 23.6787 3.26463Z" fill="#BE189C"/>
<path d="M37.8193 3.26463C37.4879 3.59612 37.3018 4.04566 37.3018 4.51439C37.3018 4.98312 37.4879 5.43266 37.8193 5.76415L46.5694 14.5143L37.8193 23.2644C37.4973 23.5978 37.3191 24.0443 37.3232 24.5078C37.3272 24.9713 37.5131 25.4146 37.8408 25.7424C38.1686 26.0701 38.612 26.256 39.0754 26.26C39.5389 26.2641 39.9854 26.0859 40.3188 25.7639L50.3187 15.764C50.6501 15.4325 50.8363 14.983 50.8363 14.5143C50.8363 14.0455 50.6501 13.596 50.3187 13.2645L40.3188 3.26463C39.9873 2.93324 39.5378 2.74707 39.0691 2.74707C38.6003 2.74707 38.1508 2.93324 37.8193 3.26463Z" fill="#B21AA3"/>
<path d="M51.9624 3.26463C51.631 3.59612 51.4448 4.04566 51.4448 4.51439C51.4448 4.98312 51.631 5.43266 51.9624 5.76415L60.7125 14.5143L51.9624 23.2644C51.6404 23.5978 51.4622 24.0443 51.4662 24.5078C51.4703 24.9713 51.6562 25.4146 51.9839 25.7424C52.3117 26.0701 52.755 26.256 53.2185 26.26C53.682 26.2641 54.1285 26.0859 54.4619 25.7639L64.4618 15.764C64.7932 15.4325 64.9793 14.983 64.9793 14.5143C64.9793 14.0455 64.7932 13.596 64.4618 13.2645L54.4619 3.26463C54.1304 2.93324 53.6809 2.74707 53.2121 2.74707C52.7434 2.74707 52.2939 2.93324 51.9624 3.26463Z" fill="#9D1EAF"/>
</svg>
