<svg width="29" height="29" viewBox="0 0 29 29" fill="none" xmlns="http://www.w3.org/2000/svg">
<g id="ep:arrow-right-bold">
<path id="Vector" d="M9.96238 3.26463C9.63099 3.59612 9.44482 4.04566 9.44482 4.51439C9.44482 4.98312 9.63099 5.43266 9.96238 5.76415L18.7125 14.5143L9.96238 23.2644C9.64038 23.5978 9.46221 24.0443 9.46623 24.5078C9.47026 24.9713 9.65617 25.4146 9.98392 25.7424C10.3117 26.0701 10.755 26.256 11.2185 26.26C11.682 26.2641 12.1285 26.0859 12.4619 25.7639L22.4618 15.764C22.7932 15.4325 22.9793 14.983 22.9793 14.5143C22.9793 14.0455 22.7932 13.596 22.4618 13.2645L12.4619 3.26463C12.1304 2.93324 11.6809 2.74707 11.2121 2.74707C10.7434 2.74707 10.2939 2.93324 9.96238 3.26463Z" fill="#9D1EAF"/>
</g>
</svg>
