<svg width="72" height="29" viewBox="0 0 72 29" fill="none" xmlns="http://www.w3.org/2000/svg">
<path d="M9.84764 3.26463C9.51624 3.59612 9.33008 4.04566 9.33008 4.51439C9.33008 4.98312 9.51624 5.43266 9.84764 5.76415L18.5977 14.5143L9.84764 23.2644C9.52564 23.5978 9.34746 24.0443 9.35149 24.5078C9.35552 24.9713 9.54142 25.4146 9.86917 25.7424C10.1969 26.0701 10.6403 26.256 11.1038 26.26C11.5672 26.2641 12.0138 26.0859 12.3472 25.7639L22.347 15.764C22.6784 15.4325 22.8646 14.983 22.8646 14.5143C22.8646 14.0455 22.6784 13.596 22.347 13.2645L12.3472 3.26463C12.0157 2.93324 11.5661 2.74707 11.0974 2.74707C10.6287 2.74707 10.1791 2.93324 9.84764 3.26463Z" fill="#A81CA9"/>
<path d="M23.9892 3.26463C23.6578 3.59612 23.4717 4.04566 23.4717 4.51439C23.4717 4.98312 23.6578 5.43266 23.9892 5.76415L32.7393 14.5143L23.9892 23.2644C23.6672 23.5978 23.4891 24.0443 23.4931 24.5078C23.4971 24.9713 23.683 25.4146 24.0108 25.7424C24.3385 26.0701 24.7819 26.256 25.2454 26.26C25.7088 26.2641 26.1554 26.0859 26.4888 25.7639L36.4886 15.764C36.82 15.4325 37.0062 14.983 37.0062 14.5143C37.0062 14.0455 36.82 13.596 36.4886 13.2645L26.4888 3.26463C26.1573 2.93324 25.7077 2.74707 25.239 2.74707C24.7703 2.74707 24.3207 2.93324 23.9892 3.26463Z" fill="#9D1EAF"/>
<path d="M38.1299 3.26463C37.7985 3.59612 37.6123 4.04566 37.6123 4.51439C37.6123 4.98312 37.7985 5.43266 38.1299 5.76415L46.88 14.5143L38.1299 23.2644C37.8079 23.5978 37.6297 24.0443 37.6337 24.5078C37.6377 24.9713 37.8237 25.4146 38.1514 25.7424C38.4791 26.0701 38.9225 26.256 39.386 26.26C39.8495 26.2641 40.296 26.0859 40.6294 25.7639L50.6293 15.764C50.9607 15.4325 51.1468 14.983 51.1468 14.5143C51.1468 14.0455 50.9607 13.596 50.6293 13.2645L40.6294 3.26463C40.2979 2.93324 39.8484 2.74707 39.3796 2.74707C38.9109 2.74707 38.4614 2.93324 38.1299 3.26463Z" fill="#8523BD"/>
<path d="M52.2729 3.26463C51.9415 3.59612 51.7554 4.04566 51.7554 4.51439C51.7554 4.98312 51.9415 5.43266 52.2729 5.76415L61.023 14.5143L52.2729 23.2644C51.9509 23.5978 51.7728 24.0443 51.7768 24.5078C51.7808 24.9713 51.9667 25.4146 52.2945 25.7424C52.6222 26.0701 53.0656 26.256 53.5291 26.26C53.9925 26.2641 54.4391 26.0859 54.7725 25.7639L64.7723 15.764C65.1037 15.4325 65.2899 14.983 65.2899 14.5143C65.2899 14.0455 65.1037 13.596 64.7723 13.2645L54.7725 3.26463C54.441 2.93324 53.9914 2.74707 53.5227 2.74707C53.054 2.74707 52.6044 2.93324 52.2729 3.26463Z" fill="#8523BD"/>
</svg>
