<svg width="30" height="29" viewBox="0 0 30 29" fill="none" xmlns="http://www.w3.org/2000/svg">
<g id="ep:arrow-right-bold">
<path id="Vector" d="M10.1299 3.26463C9.79847 3.59612 9.6123 4.04566 9.6123 4.51439C9.6123 4.98312 9.79847 5.43266 10.1299 5.76415L18.88 14.5143L10.1299 23.2644C9.80786 23.5978 9.62969 24.0443 9.63372 24.5078C9.63774 24.9713 9.82365 25.4146 10.1514 25.7424C10.4791 26.0701 10.9225 26.256 11.386 26.26C11.8495 26.2641 12.296 26.0859 12.6294 25.7639L22.6293 15.764C22.9607 15.4325 23.1468 14.983 23.1468 14.5143C23.1468 14.0455 22.9607 13.596 22.6293 13.2645L12.6294 3.26463C12.2979 2.93324 11.8484 2.74707 11.3796 2.74707C10.9109 2.74707 10.4614 2.93324 10.1299 3.26463Z" fill="#8523BD"/>
</g>
</svg>
