<svg width="72" height="29" viewBox="0 0 72 29" fill="none" xmlns="http://www.w3.org/2000/svg">
<path d="M9.71287 3.26463C9.38148 3.59612 9.19531 4.04566 9.19531 4.51439C9.19531 4.98312 9.38148 5.43266 9.71287 5.76415L18.463 14.5143L9.71287 23.2644C9.39087 23.5978 9.2127 24.0443 9.21672 24.5078C9.22075 24.9713 9.40666 25.4146 9.7344 25.7424C10.0621 26.0701 10.5055 26.256 10.969 26.26C11.4325 26.2641 11.879 26.0859 12.2124 25.7639L22.2123 15.764C22.5437 15.4325 22.7298 14.983 22.7298 14.5143C22.7298 14.0455 22.5437 13.596 22.2123 13.2645L12.2124 3.26463C11.8809 2.93324 11.4314 2.74707 10.9626 2.74707C10.4939 2.74707 10.0444 2.93324 9.71287 3.26463Z" fill="#8523BD"/>
<path d="M23.8545 3.26463C23.5231 3.59612 23.3369 4.04566 23.3369 4.51439C23.3369 4.98312 23.5231 5.43266 23.8545 5.76415L32.6046 14.5143L23.8545 23.2644C23.5325 23.5978 23.3543 24.0443 23.3583 24.5078C23.3624 24.9713 23.5483 25.4146 23.876 25.7424C24.2038 26.0701 24.6471 26.256 25.1106 26.26C25.5741 26.2641 26.0206 26.0859 26.354 25.7639L36.3539 15.764C36.6853 15.4325 36.8714 14.983 36.8714 14.5143C36.8714 14.0455 36.6853 13.596 36.3539 13.2645L26.354 3.26463C26.0225 2.93324 25.573 2.74707 25.1042 2.74707C24.6355 2.74707 24.186 2.93324 23.8545 3.26463Z" fill="#7027C9"/>
<path d="M37.9951 3.26463C37.6637 3.59612 37.4775 4.04566 37.4775 4.51439C37.4775 4.98312 37.6637 5.43266 37.9951 5.76415L46.7452 14.5143L37.9951 23.2644C37.6731 23.5978 37.4949 24.0443 37.4989 24.5078C37.503 24.9713 37.6889 25.4146 38.0166 25.7424C38.3444 26.0701 38.7877 26.256 39.2512 26.26C39.7147 26.2641 40.1612 26.0859 40.4946 25.7639L50.4945 15.764C50.8259 15.4325 51.0121 14.983 51.0121 14.5143C51.0121 14.0455 50.8259 13.596 50.4945 13.2645L40.4946 3.26463C40.1631 2.93324 39.7136 2.74707 39.2449 2.74707C38.7761 2.74707 38.3266 2.93324 37.9951 3.26463Z" fill="#5F2BD3"/>
<path d="M52.1382 3.26463C51.8068 3.59612 51.6206 4.04566 51.6206 4.51439C51.6206 4.98312 51.8068 5.43266 52.1382 5.76415L60.8883 14.5143L52.1382 23.2644C51.8162 23.5978 51.638 24.0443 51.642 24.5078C51.646 24.9713 51.832 25.4146 52.1597 25.7424C52.4874 26.0701 52.9308 26.256 53.3943 26.26C53.8578 26.2641 54.3043 26.0859 54.6377 25.7639L64.6376 15.764C64.969 15.4325 65.1551 14.983 65.1551 14.5143C65.1551 14.0455 64.969 13.596 64.6376 13.2645L54.6377 3.26463C54.3062 2.93324 53.8567 2.74707 53.3879 2.74707C52.9192 2.74707 52.4697 2.93324 52.1382 3.26463Z" fill="#542DD9"/>
</svg>
