<svg width="24" height="25" viewBox="0 0 24 25" fill="none" xmlns="http://www.w3.org/2000/svg">
<path fill-rule="evenodd" clip-rule="evenodd" d="M24 12.6797C24 19.3071 18.6274 24.6797 12 24.6797C5.37258 24.6797 0 19.3071 0 12.6797C0 6.05227 5.37258 0.679688 12 0.679688C18.6274 0.679688 24 6.05227 24 12.6797ZM12 2.67969C6.47715 2.67969 2 7.15684 2 12.6797C2 18.2025 6.47715 22.6797 12 22.6797C17.5228 22.6797 22 18.2025 22 12.6797C22 7.15684 17.5228 2.67969 12 2.67969ZM7.70711 12.9726L10 15.2655L16.2929 8.97258C16.6834 8.58206 17.3166 8.58206 17.7071 8.97258C18.0976 9.3631 18.0976 9.99627 17.7071 10.3868L10.7071 17.3868C10.3166 17.7773 9.68342 17.7773 9.29289 17.3868L6.29289 14.3868C5.90237 13.9963 5.90237 13.3631 6.29289 12.9726C6.68342 12.5821 7.31658 12.5821 7.70711 12.9726Z" fill="#1F364D"/>
</svg>
