<svg width="22" height="26" viewBox="0 0 22 26" fill="none" xmlns="http://www.w3.org/2000/svg">
<path id="Vector" fill-rule="evenodd" clip-rule="evenodd" d="M2 3C2 2.44772 2.44772 2 3 2H14.1716C14.4368 2 14.6911 2.10536 14.8787 2.2929L19.7072 7.12132C19.8946 7.30886 20 7.56322 20 7.82842V23C20 23.5522 19.5522 24 19 24H3C2.44772 24 2 23.5522 2 23V3ZM3 0C1.34314 0 0 1.34314 0 3V23C0 24.6568 1.34314 26 3 26H19C20.6568 26 22 24.6568 22 23V7.82842C22 7.03278 21.684 6.26972 21.1214 5.7071L16.2928 0.87868C15.7303 0.31608 14.9672 0 14.1716 0H3ZM5 6C4.44772 6 4 6.44772 4 7C4 7.55228 4.44772 8 5 8H11C11.5523 8 12 7.55228 12 7C12 6.44772 11.5523 6 11 6H5ZM5 12C4.44772 12 4 12.4477 4 13C4 13.5523 4.44772 14 5 14H17C17.5522 14 18 13.5523 18 13C18 12.4477 17.5522 12 17 12H5ZM5 18C4.44772 18 4 18.4478 4 19C4 19.5522 4.44772 20 5 20H17C17.5522 20 18 19.5522 18 19C18 18.4478 17.5522 18 17 18H5Z" fill="#DEE4EC"/>
</svg>
