<svg width="25" height="24" viewBox="0 0 25 24" fill="none" xmlns="http://www.w3.org/2000/svg">
<path d="M15.1604 11.8723H4.91667C4.65694 11.8723 4.43924 11.7845 4.26354 11.6088C4.08785 11.4331 4 11.2154 4 10.9557C4 10.6959 4.08785 10.4782 4.26354 10.3025C4.43924 10.1268 4.65694 10.039 4.91667 10.039H15.1604L10.6688 5.54733C10.4854 5.364 10.3976 5.15011 10.4052 4.90567C10.4128 4.66122 10.5083 4.44733 10.6917 4.264C10.875 4.09594 11.0889 4.0081 11.3333 4.00046C11.5778 3.99282 11.7917 4.08067 11.975 4.264L18.025 10.314C18.1167 10.4057 18.1816 10.505 18.2198 10.6119C18.258 10.7189 18.2771 10.8334 18.2771 10.9557C18.2771 11.0779 18.258 11.1925 18.2198 11.2994C18.1816 11.4064 18.1167 11.5057 18.025 11.5973L11.975 17.6473C11.8069 17.8154 11.5969 17.8994 11.3448 17.8994C11.0927 17.8994 10.875 17.8154 10.6917 17.6473C10.5083 17.464 10.4167 17.2463 10.4167 16.9942C10.4167 16.7421 10.5083 16.5244 10.6917 16.3411L15.1604 11.8723Z" fill="#353535"/>
</svg>
