<svg width="12" height="13" viewBox="0 0 12 13" fill="none" xmlns="http://www.w3.org/2000/svg">
<g id="icons">
<path id="Icon" fill-rule="evenodd" clip-rule="evenodd" d="M6.88731 1.46854L11.7402 10.801C11.995 11.291 11.8043 11.8948 11.3143 12.1496C11.1718 12.2237 11.0136 12.2624 10.853 12.2624H1.14722C0.594932 12.2624 0.147217 11.8146 0.147217 11.2624C0.147217 11.1017 0.185902 10.9435 0.26 10.801L5.11288 1.46854C5.36768 0.978545 5.97145 0.787879 6.46145 1.04268C6.64379 1.1375 6.79249 1.2862 6.88731 1.46854ZM5.2501 5.51235V7.76235C5.2501 8.17657 5.58588 8.51235 6.0001 8.51235C6.41431 8.51235 6.7501 8.17657 6.7501 7.76235V5.51235C6.7501 5.09814 6.41431 4.76235 6.0001 4.76235C5.58588 4.76235 5.2501 5.09814 5.2501 5.51235ZM6.0001 10.7624C6.41431 10.7624 6.7501 10.4266 6.7501 10.0124C6.7501 9.59814 6.41431 9.26235 6.0001 9.26235C5.58588 9.26235 5.2501 9.59814 5.2501 10.0124C5.2501 10.4266 5.58588 10.7624 6.0001 10.7624Z" fill="#EC9A3A"/>
</g>
</svg>
