<svg width="12" height="12" viewBox="0 0 12 12" fill="none" xmlns="http://www.w3.org/2000/svg">
<path fill-rule="evenodd" clip-rule="evenodd" d="M6.88707 0.706181L11.7399 10.0386C11.9947 10.5286 11.8041 11.1324 11.3141 11.3872C11.1716 11.4613 11.0133 11.5 10.8527 11.5H1.14697C0.594688 11.5 0.146973 11.0523 0.146973 10.5C0.146973 10.3394 0.185658 10.1811 0.259756 10.0386L5.11264 0.706181C5.36743 0.216185 5.97121 0.0255193 6.46121 0.280317C6.64355 0.375136 6.79225 0.523837 6.88707 0.706181ZM5.24985 4.75V7C5.24985 7.41421 5.58564 7.75 5.99985 7.75C6.41407 7.75 6.74985 7.41421 6.74985 7V4.75C6.74985 4.33578 6.41407 4 5.99985 4C5.58564 4 5.24985 4.33578 5.24985 4.75ZM5.99985 10C6.41407 10 6.74985 9.66421 6.74985 9.25C6.74985 8.83578 6.41407 8.5 5.99985 8.5C5.58564 8.5 5.24985 8.83578 5.24985 9.25C5.24985 9.66421 5.58564 10 5.99985 10Z" fill="#EC9A3A"/>
</svg>
