<svg width="57" height="56" viewBox="0 0 57 56" fill="none" xmlns="http://www.w3.org/2000/svg">
<g id="carbon:text-link-analysis" opacity="0.7">
<path id="Vector" d="M14.25 17.5H28.5V21H14.25V17.5ZM14.25 10.5H35.625V14H14.25V10.5ZM14.25 3.5H35.625V7H14.25V3.5Z" fill="#E70F84"/>
<path id="Vector_2" d="M8.39147 49L18.4217 31.507L31.6635 42.8645C32.0638 43.2144 32.5393 43.4712 33.0545 43.6156C33.5698 43.76 34.1116 43.7883 34.6395 43.6985C35.1675 43.6087 35.668 43.403 36.1039 43.0968C36.5397 42.7906 36.8997 42.3918 37.1569 41.93L49.5722 23.7248L46.6135 21.7752L34.1448 40.0592L34.0201 40.2395L20.7765 28.882C20.3763 28.5341 19.9017 28.2789 19.3877 28.1353C18.8737 27.9917 18.3335 27.9633 17.8068 28.0524C17.2802 28.1414 16.7807 28.3455 16.3451 28.6497C15.9095 28.9538 15.549 29.3502 15.2902 29.8095L7.125 44.0703V3.5H3.5625V49C3.56344 49.928 3.93908 50.8177 4.60697 51.4739C5.27487 52.13 6.18046 52.4991 7.125 52.5H53.4375V49H8.39147Z" fill="#E70F84"/>
</g>
</svg>
