<svg width="70" height="71" viewBox="0 0 70 71" fill="none" xmlns="http://www.w3.org/2000/svg">
<g id="icons8:idea" opacity="0.7">
<path id="Vector" d="M14.9034 5.33789L11.8234 8.45745L16.4062 13.1035L19.4819 9.98395L14.9012 5.33789H14.9034ZM55.0988 5.33789L50.5159 9.98395L53.5938 13.1035L58.1744 8.45967L55.0966 5.33789H55.0988ZM35 6.72239C34.2781 6.73127 33.5475 6.77342 32.8125 6.86439C32.7906 6.86439 32.7688 6.85995 32.7469 6.86439C23.8744 7.89611 16.8131 15.167 15.5859 24.1263C14.6059 31.3372 17.5372 37.8759 22.4219 42.0871C24.42 43.8167 25.7714 46.1901 26.25 48.8099V62.1224H31.2375C31.9987 63.447 33.3878 64.3411 35 64.3411C36.6122 64.3411 38.0012 63.447 38.7625 62.1224H43.75V53.2474H43.9556V50.6115C43.9556 47.3588 45.6225 44.0795 48.3306 41.5301C51.9531 37.8515 54.6875 32.6263 54.6875 26.6246C54.6875 15.664 45.7931 6.62033 35 6.72239ZM35 11.1599C43.4547 11.0401 50.3125 18.0602 50.3125 26.6246C50.3125 31.2706 48.1906 35.362 45.2528 38.3396L45.3228 38.4106C42.4033 41.1412 40.5155 44.8201 39.9853 48.8121H30.4172C29.9359 45.0091 28.3281 41.3282 25.2897 38.6879C21.4244 35.3598 19.1209 30.3454 19.8909 24.6832C20.8469 17.6941 26.4381 12.074 33.2894 11.3041C33.855 11.2241 34.4247 11.1767 34.9956 11.1621L35 11.1599ZM4.375 26.6246V31.0621H10.9375V26.6246H4.375ZM59.0625 26.6246V31.0621H65.625V26.6246H59.0625ZM16.4062 44.5831L11.8256 49.227L14.9034 52.3488L19.4797 47.7027L16.4062 44.5831ZM53.5938 44.5831L50.5181 47.7027L55.0966 52.3488L58.1744 49.227L53.5938 44.5831ZM30.625 53.2496H39.375V57.6871H30.625V53.2496Z" fill="#EA0F82"/>
</g>
</svg>
