<svg width="75" height="75" viewBox="0 0 75 75" fill="none" xmlns="http://www.w3.org/2000/svg">
<g id="fluent:calendar-search-16-regular" opacity="0.7">
<path id="Vector" d="M65.625 21.0938C65.625 17.9857 64.3903 15.005 62.1926 12.8073C59.995 10.6097 57.0142 9.375 53.9062 9.375H21.0937C17.9857 9.375 15.005 10.6097 12.8073 12.8073C10.6096 15.005 9.375 17.9857 9.375 21.0938V26.9906C12.8415 24.6684 16.9213 23.4314 21.0937 23.4375C26.1187 23.4375 30.7312 25.1953 34.3547 28.125H60.9375V53.9063C60.9375 55.7711 60.1967 57.5595 58.8781 58.8781C57.5595 60.1967 55.771 60.9375 53.9062 60.9375H47.4422L49.5047 63C50.2687 63.7641 50.8219 64.6641 51.1641 65.625H53.9062C57.0142 65.625 59.995 64.3904 62.1926 62.1927C64.3903 59.995 65.625 57.0143 65.625 53.9063V21.0938ZM21.0937 23.4375H14.0625V21.0938C14.0625 19.2289 14.8033 17.4405 16.1219 16.1219C17.4405 14.8033 19.2289 14.0625 21.0937 14.0625H53.9062C55.771 14.0625 57.5595 14.8033 58.8781 16.1219C60.1967 17.4405 60.9375 19.2289 60.9375 21.0938V23.4375H21.0937ZM30.9187 57.6703C27.5969 60.1543 23.4575 61.2878 19.3336 60.8428C15.2097 60.3978 11.4074 58.4073 8.69192 55.2718C5.97647 52.1364 4.54945 48.0887 4.69804 43.9435C4.84663 39.7983 6.55981 35.8633 9.49279 32.9303C12.4258 29.9973 16.3608 28.2841 20.506 28.1355C24.6512 27.987 28.6988 29.414 31.8343 32.1294C34.9698 34.8449 36.9603 38.6472 37.4053 42.7711C37.8503 46.895 36.7168 51.0344 34.2328 54.3563L46.1859 66.3094C46.626 66.7489 46.8735 67.3452 46.874 67.9671C46.8744 68.5891 46.6277 69.1857 46.1883 69.6258C45.7488 70.0659 45.1525 70.3134 44.5306 70.3138C43.9086 70.3143 43.312 70.0676 42.8719 69.6281L30.9187 57.675V57.6703ZM32.8125 44.5313C32.8125 41.4233 31.5778 38.4425 29.3802 36.2448C27.1825 34.0472 24.2018 32.8125 21.0937 32.8125C17.9857 32.8125 15.005 34.0472 12.8073 36.2448C10.6096 38.4425 9.375 41.4233 9.375 44.5313C9.375 47.6393 10.6096 50.62 12.8073 52.8177C15.005 55.0154 17.9857 56.25 21.0937 56.25C24.2018 56.25 27.1825 55.0154 29.3802 52.8177C31.5778 50.62 32.8125 47.6393 32.8125 44.5313Z" fill="#E70F84"/>
</g>
</svg>
