<svg width="65" height="65" viewBox="0 0 65 65" fill="none" xmlns="http://www.w3.org/2000/svg">
<g id="fluent:design-ideas-16-regular" opacity="0.7">
<path id="Vector" d="M28.4375 44.5782C27.0292 44.422 25.6439 44.1016 24.31 43.6235C24.3506 42.6648 24.375 41.6654 24.375 40.6254V39.2563C25.6344 39.8576 27.0034 40.276 28.4375 40.4832V30.4691C28.4375 28.853 29.0795 27.303 30.2223 26.1602C31.3651 25.0174 32.9151 24.3754 34.5312 24.3754H44.5453C44.2213 22.1243 43.3621 19.9838 42.0397 18.1335C40.7174 16.2831 38.9704 14.777 36.9456 13.7415C34.9207 12.706 32.677 12.1713 30.4027 12.1823C28.1285 12.1933 25.8901 12.7497 23.8753 13.8048C23.554 12.4761 23.0247 11.2064 22.3072 10.0429C24.9408 8.72837 27.8528 8.0692 30.7958 8.12142C33.7388 8.17364 36.6256 8.9357 39.2109 10.3428C41.7962 11.7499 44.0035 13.7605 45.6452 16.2036C47.2869 18.6467 48.3144 21.4501 48.6403 24.3754H54.8438C56.4599 24.3754 58.0099 25.0174 59.1527 26.1602C60.2955 27.303 60.9375 28.853 60.9375 30.4691V50.7816C60.9375 52.3978 60.2955 53.9478 59.1527 55.0906C58.0099 56.2334 56.4599 56.8754 54.8438 56.8754H34.5312C32.9151 56.8754 31.3651 56.2334 30.2223 55.0906C29.0795 53.9478 28.4375 52.3978 28.4375 50.7816V44.5782ZM48.6403 28.4379C48.1787 32.5597 46.3299 36.4022 43.3971 39.335C40.4643 42.2678 36.6218 44.1166 32.5 44.5782V50.7816C32.5 51.3204 32.714 51.837 33.0949 52.218C33.4759 52.5989 33.9925 52.8129 34.5312 52.8129H54.8438C55.3825 52.8129 55.8991 52.5989 56.2801 52.218C56.661 51.837 56.875 51.3204 56.875 50.7816V30.4691C56.875 29.9304 56.661 29.4138 56.2801 29.0328C55.8991 28.6519 55.3825 28.4379 54.8438 28.4379H48.6403ZM44.5453 28.4379H34.5312C33.9925 28.4379 33.4759 28.6519 33.0949 29.0328C32.714 29.4138 32.5 29.9304 32.5 30.4691V40.4832C35.5387 40.044 38.3537 38.6336 40.5247 36.4626C42.6957 34.2916 44.1061 31.4766 44.5453 28.4379ZM19.4797 30.717C19.0531 29.1488 18.3625 27.5766 17.1763 26.3701C19.0938 24.5541 20.3125 21.6616 20.3125 18.2816C20.3125 15.4501 19.7397 13.5041 18.7038 11.9482C18.2441 11.279 17.7128 10.6619 17.1194 10.1079C16.8919 9.88831 16.6617 9.67162 16.4288 9.45789C16.1809 9.22633 15.9534 9.01508 15.6569 8.71852C15.0475 8.10914 14.9784 7.62164 14.9784 7.3657C14.9791 7.22344 15.0024 7.0822 15.0475 6.94727C15.2332 6.54559 15.2827 6.09424 15.1884 5.66187C15.0941 5.22949 14.8612 4.83974 14.525 4.55189C14.1889 4.26404 13.768 4.09384 13.3262 4.06717C12.8845 4.0405 12.4461 4.15882 12.0778 4.40414L12.0697 4.4082L12.0575 4.41633L12.0209 4.4407L11.8991 4.52195C11.2897 4.9566 10.7026 5.42167 10.14 5.91539C9.12438 6.8132 7.8 8.14164 6.86156 9.72602C6.04236 11.0395 5.38489 12.4472 4.90344 13.9185C4.41594 15.377 4.0625 16.9573 4.0625 18.2816C4.0625 21.6616 5.28125 24.5501 7.19875 26.3741C6.0125 27.5766 5.32188 29.1488 4.89531 30.721C4.0625 33.776 4.0625 37.5541 4.0625 40.4751V40.6254C4.0625 48.986 5.62656 53.9504 7.39781 56.9038C8.2875 58.3826 9.21375 59.3373 9.98969 59.9385C10.4031 60.261 10.8531 60.5337 11.3303 60.751C11.6063 60.8518 11.8946 60.9146 12.1875 60.9379C12.5288 60.9379 13.0447 60.751 13.0447 60.751C13.5219 60.5337 13.9719 60.261 14.3853 59.9385C15.1572 59.3373 16.0916 58.3826 16.9772 56.9038C18.7484 53.9545 20.3125 48.986 20.3125 40.6254V40.4791C20.3125 37.5541 20.3125 33.7801 19.4797 30.717ZM10.1034 29.2138C10.5625 28.7507 11.1759 28.4379 12.1875 28.4379C13.2031 28.4379 13.8125 28.7548 14.2716 29.2098C14.7834 29.7257 15.2262 30.5626 15.5594 31.7854C16.2337 34.2676 16.25 37.5257 16.25 40.6254C16.25 48.5148 14.7672 52.691 13.4916 54.8157C13.0041 55.6282 12.545 56.1523 12.1875 56.4813C11.6767 55.9902 11.2377 55.4294 10.8834 54.8157C9.60781 52.687 8.125 48.5148 8.125 40.6254C8.125 37.5257 8.14125 34.2676 8.81563 31.7854C9.14875 30.5666 9.59156 29.7257 10.1034 29.2098V29.2138ZM12.1875 24.3754C10.6234 24.3754 8.125 22.6366 8.125 18.2816C8.125 17.5788 8.33625 16.4657 8.75875 15.2063C9.14376 14.0174 9.67458 12.8807 10.3391 11.8223C10.6925 11.2251 11.1516 10.6441 11.6472 10.112C11.9275 10.6076 12.2972 11.1073 12.7847 11.5948C13.0813 11.8913 13.4672 12.2488 13.7962 12.5576L14.3 13.0288C14.7266 13.4432 15.0556 13.8048 15.3197 14.207C15.8072 14.9341 16.25 16.0351 16.25 18.2816C16.25 22.6366 13.7516 24.3754 12.1875 24.3754Z" fill="#E70F84"/>
</g>
</svg>
