<svg width="368" height="108" viewBox="0 0 368 108" fill="none" xmlns="http://www.w3.org/2000/svg">
<g clip-path="url(#clip0_1_157)">
<path d="M63.9475 67.5391C62.8788 67.3653 61.8101 67.0177 60.8794 66.4615C60.7759 66.392 60.6725 66.4268 60.6036 66.4963L47.6072 79.6009C45.9525 81.4432 43.1602 81.5822 41.3331 79.9137C39.5405 78.28 39.3682 75.534 40.9194 73.6917L41.0229 73.5874L41.0573 73.5526C41.1608 73.4484 41.2297 73.3441 41.3331 73.2745L54.2261 60.2742C54.295 60.2047 54.295 60.1004 54.2261 60.0309L52.0198 57.8063C51.9508 57.7367 51.8474 57.7367 51.7785 57.8063L38.8855 70.8066L38.8511 70.8413L38.7821 70.9109C37.024 72.6489 34.2317 72.6141 32.508 70.8413C30.8533 69.1381 30.8188 66.392 32.4391 64.654L32.577 64.515L45.4354 51.5494C45.5044 51.4799 45.5044 51.3756 45.4354 51.3061L43.2291 49.0814C43.1602 49.0119 43.0568 49.0119 42.9878 49.0814L29.9915 62.1165C26.8889 65.2449 26.8889 70.2852 29.9915 73.4136C31.4738 74.9083 33.4733 75.7425 35.5761 75.7425C35.8519 75.7425 36.1622 75.7425 36.4379 75.7078C36.4035 75.9858 36.4035 76.2987 36.4035 76.5768C36.4035 80.9913 39.9542 84.5716 44.3323 84.5716C46.4351 84.5716 48.4346 83.7374 49.9169 82.2427L64.0853 67.9562C64.1888 67.852 64.1888 67.7129 64.0853 67.6434C64.0509 67.5739 63.9819 67.5739 63.9475 67.5391Z" fill="#1778F2"/>
<path d="M28.0953 29.3372C29.164 29.511 30.2327 29.8586 31.1634 30.4148C31.2669 30.4843 31.3703 30.4495 31.4392 30.38L44.4356 17.2754C46.0903 15.4331 48.8826 15.2941 50.7097 16.9626C52.5023 18.5963 52.6746 21.3423 51.1234 23.1846L51.0199 23.2889L50.9855 23.3237C50.882 23.428 50.8131 23.5322 50.7097 23.6018L37.8167 36.6021C37.7478 36.6716 37.7478 36.7759 37.8167 36.8454L40.023 39.0701C40.092 39.1396 40.1954 39.1396 40.2643 39.0701L53.1573 26.0697L53.1917 26.035L53.2607 25.9655C55.0188 24.2274 57.8111 24.2622 59.5348 26.035C61.1895 27.7382 61.224 30.4843 59.6037 32.2223L59.4658 32.3613L46.6074 45.3269C46.5384 45.3964 46.5384 45.5007 46.6074 45.5702L48.8137 47.7949C48.8826 47.8644 48.986 47.8644 49.055 47.7949L62.0513 34.7598C65.1539 31.6314 65.1539 26.5911 62.0513 23.4627C60.569 21.968 58.5695 21.1338 56.4667 21.1338C56.1909 21.1338 55.8806 21.1338 55.6048 21.1685C55.6393 20.8905 55.6393 20.5776 55.6393 20.2995C55.6393 15.885 52.0886 12.3047 47.7105 12.3047C45.6077 12.3047 43.6082 13.1389 42.1259 14.6336L27.9574 28.9548C27.854 29.0591 27.854 29.1982 27.9574 29.2677C27.9919 29.3024 28.0609 29.3372 28.0953 29.3372Z" fill="#1778F2"/>
<path d="M64.9818 30.3456C64.8094 31.4232 64.4647 32.5008 63.9131 33.4393C63.8442 33.5436 63.8787 33.6479 63.9476 33.7174L76.944 46.822C78.771 48.4905 78.9089 51.306 77.2542 53.1483L77.2197 53.1831C75.7374 54.9906 73.083 55.2687 71.2559 53.7393C71.1525 53.6697 71.0491 53.5655 70.9456 53.4612L70.9112 53.4264C70.8078 53.3221 70.7043 53.2526 70.6354 53.1483L57.7425 40.148C57.6735 40.0785 57.5701 40.0785 57.5011 40.148L55.2949 42.3727C55.2259 42.4422 55.2259 42.5465 55.2949 42.616L68.1878 55.6163L68.2223 55.6511L68.2912 55.7206C70.0149 57.4934 69.9804 60.3089 68.2223 62.047C66.5331 63.7154 63.8097 63.7502 62.0861 62.1165L61.9482 61.9774L50.1584 50.0894L45.47 45.362L32.4392 32.2574C29.3367 29.129 24.3381 29.129 21.2355 32.2574C19.7876 33.7869 18.9603 35.803 18.9603 37.9234C18.9603 38.2014 18.9603 38.5143 18.9947 38.7924C18.7189 38.7576 18.4087 38.7576 18.1329 38.7576C13.7548 38.7576 10.2041 42.3379 10.2041 46.7525C10.2041 48.8728 11.0315 50.8889 12.5138 52.3836L26.6822 66.6701C26.7856 66.7743 26.9235 66.7743 26.9925 66.6701C27.027 66.6353 27.0614 66.6005 27.0614 66.531C27.2338 65.4535 27.5785 64.3759 28.1301 63.4374C28.199 63.3331 28.1646 63.2288 28.0956 63.1593L15.0993 50.0547C13.2722 48.3862 13.1343 45.5706 14.789 43.7283C16.4437 42.0598 19.0982 41.886 20.9942 43.346L21.0631 43.4155L21.0976 43.4502C21.201 43.5545 21.3044 43.624 21.3734 43.7283L34.2663 56.7286C34.3352 56.7982 34.4387 56.7982 34.5076 56.7286L36.7139 54.504C36.7828 54.4345 36.7828 54.3302 36.7139 54.2607L23.821 41.2603L23.7865 41.2256L23.7175 41.1561C21.9939 39.3833 22.0284 36.5677 23.7865 34.8297C25.4757 33.1612 28.199 33.1265 29.9227 34.7602L30.0606 34.8992L42.8501 47.7953L47.6074 52.5922L59.5351 64.6192C62.6376 67.7476 67.6362 67.7476 70.7388 64.6192C72.2211 63.1245 73.0485 61.1084 73.0485 58.9881C73.0485 58.71 73.0485 58.3971 73.014 58.119C73.2898 58.1538 73.6001 58.1538 73.8759 58.1538C78.2539 58.1538 81.8047 54.5735 81.8047 50.159C81.8047 48.0386 80.9773 46.0225 79.495 44.5278L65.361 30.2414C65.2576 30.1371 65.1197 30.1371 65.0508 30.2414C65.0163 30.2761 64.9818 30.3109 64.9818 30.3456Z" fill="#F40009"/>
<path d="M124.172 29.1289C123.552 29.1289 123.069 29.2679 122.724 29.5113C122.379 29.7546 122.069 30.137 121.793 30.6931L108.28 56.4852L94.6976 30.6931C94.4218 30.137 94.0771 29.7546 93.7324 29.5113C93.3876 29.2679 92.905 29.1289 92.319 29.1289C90.9056 29.1289 90.1816 29.8936 90.1816 31.3883V65.4533C90.1816 66.948 90.9056 67.7127 92.319 67.7127C93.6979 67.7127 94.3873 66.948 94.3873 65.4533V38.4099L106.246 60.5521C106.453 61.004 106.729 61.3169 107.039 61.5602C107.349 61.8035 107.763 61.9078 108.28 61.9078C108.797 61.9078 109.211 61.8035 109.487 61.5949C109.762 61.3864 110.038 61.0388 110.279 60.5521L122 38.3404V65.4533C122 66.948 122.724 67.7127 124.138 67.7127C125.551 67.7127 126.275 66.948 126.275 65.4533V31.3883C126.275 29.8936 125.551 29.1289 124.172 29.1289ZM154.819 53.4958C154.819 49.5332 153.819 46.37 151.819 44.1106C149.82 41.8511 147.028 40.6693 143.546 40.6693C141.098 40.6693 138.927 41.2255 137.065 42.3725C135.203 43.4849 133.721 45.1186 132.652 47.1695C131.584 49.2203 131.067 51.6188 131.067 54.2953C131.067 58.4318 132.273 61.734 134.652 64.1672C137.031 66.5657 140.305 67.817 144.373 67.817C145.89 67.817 147.476 67.5737 149.096 67.1218C150.716 66.6699 152.13 65.9747 153.267 65.1405C154.026 64.6191 154.439 63.9934 154.405 63.2982C154.37 62.603 154.095 62.0816 153.509 61.734C152.923 61.3864 152.199 61.4907 151.337 62.0468C150.234 62.8116 149.062 63.3677 147.89 63.6458C146.717 63.9586 145.511 64.0977 144.373 64.0977C141.684 64.0977 139.547 63.333 137.996 61.8035C136.513 60.3088 135.652 58.1189 135.514 55.2686H152.888C154.129 55.2686 154.819 54.6777 154.819 53.4958ZM135.514 52.2097C135.79 49.8112 136.582 47.8647 137.961 46.4047C139.34 44.91 141.236 44.1453 143.615 44.1453C145.856 44.1453 147.614 44.8753 148.82 46.3005C150.027 47.6909 150.682 49.707 150.82 52.2097H135.514ZM179.467 29.1289C177.95 29.1289 177.192 29.8936 177.192 31.4231V45.2924C176.433 43.9368 175.365 42.8244 173.951 42.0249C172.4 41.1212 170.607 40.6693 168.573 40.6693C166.264 40.6693 164.23 41.2255 162.506 42.303C160.782 43.3806 159.438 44.9796 158.507 46.9957C157.576 49.0117 157.094 51.445 157.094 54.2258C157.094 56.9718 157.576 59.3703 158.507 61.3864C159.438 63.4025 160.782 65.0014 162.506 66.1138C164.23 67.2261 166.264 67.7823 168.573 67.7823C170.607 67.7823 172.4 67.3304 173.951 66.3919C175.365 65.5576 176.468 64.4453 177.226 63.0201V65.2795C177.226 66.8437 177.985 67.6432 179.467 67.6432C180.949 67.6432 181.708 66.8437 181.708 65.2795V31.4578C181.708 29.9284 180.949 29.1289 179.467 29.1289ZM177.295 54.2605C177.295 57.4237 176.571 59.8569 175.158 61.5602C173.744 63.2634 171.848 64.0977 169.504 64.0977C167.126 64.0977 165.195 63.2287 163.816 61.5602C162.403 59.8569 161.713 57.4237 161.713 54.2605C161.713 51.0626 162.437 48.5946 163.816 46.9261C165.195 45.2576 167.126 44.4234 169.504 44.4234C171.848 44.4234 173.744 45.2576 175.158 46.9261C176.571 48.5946 177.295 51.0626 177.295 54.2605ZM189.671 35.2119C191.601 35.2119 192.601 34.2734 192.601 32.4311C192.601 30.6236 191.601 29.6851 189.671 29.6851C187.74 29.6851 186.741 30.5888 186.741 32.4311C186.741 34.2734 187.706 35.2119 189.671 35.2119ZM189.671 40.9126C188.189 40.9126 187.43 41.7121 187.43 43.3111V65.1057C187.43 66.7395 188.189 67.5737 189.671 67.5737C191.188 67.5737 191.946 66.7395 191.946 65.1057V43.3111C191.946 41.7121 191.188 40.9126 189.671 40.9126Z" fill="#1778F2"/>
<path d="M222.455 47.8994C224.178 47.2042 225.557 46.1614 226.557 44.8058C227.626 43.3458 228.177 41.5383 228.177 39.4527C228.177 36.3243 227.108 33.8911 224.971 32.153C222.868 30.415 219.835 29.546 215.974 29.546H203.46C201.805 29.546 200.943 30.3803 200.943 32.0835V64.8624C200.943 66.5309 201.771 67.3999 203.46 67.3999H216.629C220.559 67.3999 223.627 66.4961 225.798 64.7234C227.97 62.9158 229.073 60.3088 229.073 56.9371C229.073 54.5734 228.453 52.592 227.212 51.0626C226.04 49.5331 224.454 48.4903 222.455 47.8994ZM224.523 56.798C224.523 61.3516 221.8 63.5415 216.18 63.5415H205.425V50.0546H216.18C221.8 50.0546 224.523 52.2792 224.523 56.798ZM205.425 46.3005V33.2654H215.353C220.938 33.2654 223.627 35.4205 223.627 39.8003C223.627 44.1801 220.903 46.3005 215.353 46.3005H205.425ZM253.653 40.8083C252.136 40.8083 251.377 41.5731 251.377 43.1025V55.9986C251.377 58.397 250.688 60.3436 249.344 61.8035C247.999 63.2287 246.241 63.9934 244.104 63.9934C242.139 63.9934 240.691 63.4372 239.794 62.3944C238.898 61.3169 238.416 59.6136 238.416 57.3542V43.1025C238.416 41.5731 237.657 40.8083 236.14 40.8083C234.658 40.8083 233.9 41.5731 233.9 43.1025V57.389C233.9 64.3062 237.037 67.7823 243.276 67.7823C245.103 67.7823 246.793 67.3651 248.275 66.5309C249.619 65.7662 250.688 64.6886 251.515 63.2982V65.3143C251.515 66.8785 252.274 67.678 253.756 67.678C255.204 67.678 255.928 66.8785 255.928 65.3143V43.1025C255.893 41.5731 255.135 40.8083 253.653 40.8083ZM282.403 29.1289C280.886 29.1289 280.128 29.8936 280.128 31.4231V45.2924C279.37 43.9368 278.301 42.8244 276.888 42.0249C275.336 41.1212 273.544 40.6693 271.51 40.6693C269.2 40.6693 267.166 41.2255 265.442 42.303C263.719 43.3806 262.374 44.9796 261.444 46.9957C260.513 49.0117 260.03 51.445 260.03 54.2258C260.03 56.9718 260.513 59.3703 261.444 61.3864C262.374 63.4025 263.719 65.0014 265.442 66.1138C267.166 67.2261 269.2 67.7823 271.51 67.7823C273.544 67.7823 275.336 67.3304 276.888 66.3919C278.301 65.5576 279.404 64.4453 280.162 63.0201V65.2795C280.162 66.8437 280.921 67.6432 282.403 67.6432C283.886 67.6432 284.644 66.8437 284.644 65.2795V31.4578C284.644 29.9284 283.886 29.1289 282.403 29.1289ZM280.231 54.2605C280.231 57.4237 279.507 59.8569 278.094 61.5602C276.681 63.2634 274.785 64.0977 272.44 64.0977C270.062 64.0977 268.131 63.2287 266.752 61.5602C265.339 59.8569 264.65 57.4237 264.65 54.2605C264.65 51.0626 265.374 48.5946 266.752 46.9261C268.131 45.2576 270.062 44.4234 272.44 44.4234C274.785 44.4234 276.681 45.2576 278.094 46.9261C279.507 48.5946 280.231 51.0626 280.231 54.2605ZM311.154 29.1289C309.637 29.1289 308.879 29.8936 308.879 31.4231V45.2924C308.12 43.9368 307.051 42.8244 305.638 42.0249C304.087 41.1212 302.294 40.6693 300.26 40.6693C297.951 40.6693 295.917 41.2255 294.193 42.303C292.469 43.3806 291.125 44.9796 290.194 46.9957C289.263 49.0117 288.781 51.445 288.781 54.2258C288.781 56.9718 289.263 59.3703 290.194 61.3864C291.125 63.4025 292.469 65.0014 294.193 66.1138C295.917 67.2261 297.951 67.7823 300.26 67.7823C302.294 67.7823 304.087 67.3304 305.638 66.3919C307.051 65.5576 308.155 64.4453 308.913 63.0201V65.2795C308.913 66.8437 309.671 67.6432 311.154 67.6432C312.636 67.6432 313.395 66.8437 313.395 65.2795V31.4578C313.395 29.9284 312.636 29.1289 311.154 29.1289ZM308.947 54.2605C308.947 57.4237 308.224 59.8569 306.81 61.5602C305.397 63.2634 303.501 64.0977 301.157 64.0977C298.778 64.0977 296.847 63.2287 295.469 61.5602C294.055 59.8569 293.366 57.4237 293.366 54.2605C293.366 51.0626 294.09 48.5946 295.469 46.9261C296.882 45.2576 298.778 44.4234 301.157 44.4234C303.501 44.4234 305.397 45.2576 306.81 46.9261C308.258 48.5946 308.947 51.0626 308.947 54.2605ZM340.973 41.7816C340.663 41.1212 340.077 40.8083 339.215 40.8083C338.594 40.8083 338.112 40.9474 337.767 41.1907C337.422 41.4688 337.112 41.9207 336.836 42.5811L328.907 61.9773L321.048 42.5811C320.565 41.3993 319.807 40.8083 318.772 40.8083C317.773 40.8083 317.083 41.1212 316.738 41.7816C316.394 42.4073 316.394 43.172 316.773 44.0063L326.46 66.7742L323.254 74.0739C322.909 74.8734 322.909 75.6381 323.219 76.2638C323.53 76.9242 324.116 77.2718 324.977 77.2718C325.598 77.2718 326.081 77.1328 326.46 76.8894C326.805 76.6461 327.149 76.1595 327.425 75.499L340.939 43.9368C341.249 43.172 341.249 42.4073 340.973 41.7816Z" fill="#F40009"/>
<path d="M94.4218 92.9487C94.0081 92.9487 93.8013 92.7401 93.8013 92.2883V87.8042L90.3195 82.9725C90.1816 82.764 90.1471 82.5902 90.2506 82.3816C90.354 82.173 90.4919 82.1035 90.7677 82.1035C91.0434 82.1035 91.2503 82.2426 91.4571 82.5206L94.4908 86.7266L97.5244 82.5206C97.7312 82.2426 97.9381 82.1035 98.2138 82.1035C98.4552 82.1035 98.6275 82.2078 98.6965 82.3816C98.7654 82.5554 98.7309 82.764 98.593 83.0073L95.1113 87.839V92.2883C95.0423 92.7054 94.8355 92.9487 94.4218 92.9487ZM101.868 92.9835C101.144 92.9835 100.558 92.8444 100.041 92.5316C99.5238 92.2187 99.1101 91.7669 98.8344 91.2107C98.5586 90.6545 98.4207 89.9593 98.4207 89.1946C98.4207 88.4299 98.5586 87.7347 98.8344 87.1785C99.1101 86.6223 99.5238 86.1705 100.041 85.8576C100.558 85.5448 101.179 85.4057 101.868 85.4057C102.557 85.4057 103.178 85.5448 103.695 85.8576C104.212 86.1705 104.626 86.6223 104.902 87.1785C105.177 87.7347 105.315 88.4299 105.315 89.1946C105.315 89.9593 105.177 90.6545 104.902 91.2107C104.626 91.7669 104.212 92.2187 103.695 92.5316C103.178 92.8097 102.557 92.9835 101.868 92.9835ZM101.868 91.9754C102.557 91.9754 103.075 91.7321 103.488 91.2455C103.902 90.7588 104.109 90.0636 104.109 89.1598C104.109 88.2561 103.902 87.5609 103.488 87.0742C103.075 86.5876 102.523 86.3443 101.868 86.3443C101.179 86.3443 100.627 86.5876 100.213 87.0742C99.7996 87.5609 99.5928 88.2561 99.5928 89.1598C99.5928 90.0636 99.7996 90.7588 100.213 91.2455C100.627 91.7321 101.179 91.9754 101.868 91.9754ZM109.762 92.9835C108.004 92.9835 107.142 92.0102 107.142 90.0636V86.0314C107.142 85.6143 107.349 85.4057 107.728 85.4057C108.142 85.4057 108.349 85.6143 108.349 86.0314V90.0288C108.349 90.6893 108.487 91.1759 108.763 91.4888C109.038 91.8016 109.452 91.9407 110.004 91.9407C110.624 91.9407 111.141 91.7321 111.52 91.315C111.9 90.8979 112.106 90.3417 112.106 89.6465V85.9967C112.106 85.5795 112.313 85.371 112.727 85.371C113.141 85.371 113.313 85.5795 113.313 85.9967V92.2883C113.313 92.7054 113.106 92.9139 112.727 92.9139C112.313 92.9139 112.141 92.7054 112.141 92.2883V91.5931C111.9 92.0449 111.589 92.3925 111.176 92.6011C110.728 92.8444 110.279 92.9835 109.762 92.9835ZM116.174 92.9487C115.761 92.9487 115.554 92.7401 115.554 92.323V86.0314C115.554 85.6143 115.761 85.4057 116.14 85.4057C116.554 85.4057 116.726 85.6143 116.726 86.0314V86.8309C116.933 86.379 117.243 85.9967 117.657 85.7533C118.07 85.51 118.587 85.371 119.139 85.3362C119.449 85.3015 119.622 85.4753 119.656 85.8229C119.691 86.1705 119.518 86.379 119.105 86.4138L118.863 86.4485C118.174 86.5181 117.657 86.7266 117.277 87.109C116.933 87.4914 116.726 88.0128 116.726 88.6732V92.323C116.795 92.7401 116.588 92.9487 116.174 92.9487ZM128.171 92.9487C127.757 92.9487 127.55 92.7401 127.55 92.2883V83.2506H124.172C123.793 83.2506 123.586 83.0768 123.586 82.6944C123.586 82.3468 123.793 82.173 124.172 82.173H132.17C132.549 82.173 132.756 82.3468 132.756 82.6944C132.756 83.042 132.549 83.2506 132.17 83.2506H128.791V92.2883C128.791 92.7401 128.585 92.9487 128.171 92.9487ZM133.307 92.9487C132.894 92.9487 132.687 92.7401 132.687 92.323V86.0314C132.687 85.6143 132.894 85.4057 133.273 85.4057C133.687 85.4057 133.859 85.6143 133.859 86.0314V86.8309C134.066 86.379 134.376 85.9967 134.79 85.7533C135.203 85.51 135.721 85.371 136.272 85.3362C136.582 85.3015 136.755 85.4753 136.789 85.8229C136.824 86.1705 136.651 86.379 136.238 86.4138L135.996 86.4485C135.307 86.5181 134.79 86.7266 134.411 87.109C134.066 87.4914 133.859 88.0128 133.859 88.6732V92.323C133.928 92.7401 133.721 92.9487 133.307 92.9487ZM140.616 92.9835C138.858 92.9835 137.996 92.0102 137.996 90.0636V86.0314C137.996 85.6143 138.203 85.4057 138.582 85.4057C138.995 85.4057 139.202 85.6143 139.202 86.0314V90.0288C139.202 90.6893 139.34 91.1759 139.616 91.4888C139.892 91.8016 140.305 91.9407 140.857 91.9407C141.478 91.9407 141.995 91.7321 142.374 91.315C142.753 90.8979 142.96 90.3417 142.96 89.6465V85.9967C142.96 85.5795 143.167 85.371 143.58 85.371C143.994 85.371 144.166 85.5795 144.166 85.9967V92.2883C144.166 92.7054 143.96 92.9139 143.58 92.9139C143.167 92.9139 142.994 92.7054 142.994 92.2883V91.5931C142.753 92.0449 142.443 92.3925 142.029 92.6011C141.615 92.8444 141.133 92.9835 140.616 92.9835ZM148.924 92.9835C148.476 92.9835 148.027 92.9139 147.579 92.8097C147.131 92.7054 146.717 92.4968 146.304 92.2535C146.131 92.1492 146.028 92.0102 146.028 91.8364C146.028 91.6626 146.097 91.5235 146.235 91.4193C146.373 91.315 146.545 91.315 146.717 91.4193C147.097 91.6626 147.476 91.8364 147.855 91.9407C148.234 92.0449 148.579 92.0797 148.958 92.0797C149.544 92.0797 149.958 91.9754 150.234 91.7669C150.509 91.5583 150.682 91.2802 150.682 90.8979C150.682 90.6198 150.578 90.3764 150.406 90.2374C150.199 90.0636 149.923 89.9593 149.51 89.855L148.131 89.5422C146.89 89.2641 146.269 88.6384 146.269 87.5956C146.269 86.9352 146.545 86.4138 147.062 85.9967C147.579 85.5795 148.269 85.4057 149.131 85.4057C149.544 85.4057 149.958 85.4753 150.372 85.5795C150.785 85.6838 151.13 85.8924 151.44 86.1357C151.613 86.24 151.682 86.4138 151.682 86.5876C151.647 86.7614 151.578 86.9004 151.44 87.0047C151.302 87.109 151.13 87.0742 150.958 86.9699C150.647 86.7614 150.337 86.6223 150.027 86.5181C149.717 86.4138 149.406 86.379 149.096 86.379C148.545 86.379 148.096 86.4833 147.821 86.7266C147.545 86.9352 147.372 87.248 147.372 87.5956C147.372 88.1518 147.752 88.5342 148.476 88.6732L149.854 88.9513C150.509 89.0903 150.992 89.3336 151.302 89.6117C151.647 89.9246 151.785 90.3417 151.785 90.8631C151.785 91.5235 151.509 92.0797 150.992 92.4621C150.475 92.7749 149.786 92.9835 148.924 92.9835ZM156.508 92.9835C155.646 92.9835 154.991 92.7401 154.577 92.2883C154.164 91.8364 153.922 91.1759 153.922 90.3069V86.4485H152.923C152.578 86.4485 152.405 86.2747 152.405 85.9619C152.405 85.6491 152.578 85.51 152.923 85.51H153.922V83.772C153.922 83.3549 154.129 83.1463 154.543 83.1463C154.956 83.1463 155.129 83.3549 155.129 83.772V85.51H157.025C157.37 85.51 157.542 85.6491 157.542 85.9619C157.542 86.2747 157.37 86.4485 157.025 86.4485H155.129V90.1679C155.129 90.7588 155.232 91.1759 155.474 91.4888C155.715 91.8016 156.094 91.9407 156.646 91.9407C156.853 91.9407 156.99 91.9059 157.128 91.8711C157.266 91.8364 157.37 91.8016 157.473 91.8016C157.576 91.8016 157.645 91.8364 157.714 91.9059C157.783 91.9754 157.818 92.1145 157.818 92.2535C157.818 92.3578 157.783 92.4968 157.749 92.6011C157.714 92.7054 157.611 92.7749 157.508 92.8097C157.404 92.8444 157.232 92.8792 157.025 92.9139C156.853 92.9487 156.646 92.9835 156.508 92.9835ZM162.023 92.9835C160.886 92.9835 159.955 92.6359 159.3 91.9754C158.645 91.2802 158.3 90.3764 158.3 89.1946C158.3 88.4299 158.438 87.7694 158.749 87.1785C159.059 86.5876 159.472 86.1357 159.99 85.8229C160.507 85.51 161.127 85.3362 161.817 85.3362C162.816 85.3362 163.575 85.6491 164.126 86.3095C164.678 86.9352 164.954 87.8389 164.954 88.9513C164.954 89.2641 164.781 89.4032 164.437 89.4032H159.472C159.507 90.2374 159.748 90.8631 160.196 91.315C160.645 91.7669 161.231 91.9754 162.023 91.9754C162.368 91.9754 162.678 91.9407 163.023 91.8364C163.368 91.7669 163.678 91.5931 164.023 91.3845C164.264 91.2455 164.437 91.2107 164.609 91.2802C164.747 91.3845 164.85 91.5235 164.85 91.6973C164.85 91.8711 164.747 92.0449 164.54 92.184C164.195 92.4273 163.816 92.6011 163.368 92.7401C162.92 92.8792 162.472 92.9835 162.023 92.9835ZM161.851 86.2747C161.162 86.2747 160.61 86.4833 160.231 86.9352C159.817 87.3523 159.61 87.9432 159.541 88.6384H163.954C163.92 87.9085 163.747 87.3175 163.368 86.9004C162.989 86.4833 162.472 86.2747 161.851 86.2747ZM169.504 92.9835C168.849 92.9835 168.298 92.8444 167.815 92.5316C167.332 92.2187 166.953 91.7669 166.677 91.2107C166.402 90.6545 166.264 89.9593 166.264 89.1946C166.264 88.3951 166.402 87.7347 166.677 87.1785C166.953 86.6223 167.332 86.1705 167.815 85.8576C168.298 85.5448 168.849 85.4057 169.504 85.4057C170.09 85.4057 170.573 85.5448 171.021 85.7881C171.469 86.0314 171.779 86.379 171.986 86.8309V82.764C171.986 82.3468 172.193 82.1383 172.607 82.1383C173.02 82.1383 173.193 82.3468 173.193 82.764V92.3578C173.193 92.7749 172.986 92.9835 172.607 92.9835C172.228 92.9835 172.021 92.7749 172.021 92.3578V91.5583C171.814 92.0102 171.469 92.3578 171.055 92.6359C170.573 92.8444 170.056 92.9835 169.504 92.9835ZM169.745 91.9754C170.435 91.9754 170.952 91.7321 171.366 91.2455C171.779 90.7588 171.986 90.0636 171.986 89.1598C171.986 88.2561 171.779 87.5609 171.366 87.0742C170.952 86.5876 170.4 86.3443 169.745 86.3443C169.056 86.3443 168.504 86.5876 168.091 87.0742C167.677 87.5609 167.47 88.2561 167.47 89.1598C167.47 90.0636 167.677 90.7588 168.091 91.2455C168.504 91.7321 169.056 91.9754 169.745 91.9754ZM180.156 92.8444C179.708 92.8444 179.467 92.6011 179.467 92.1492V82.8682C179.467 82.4164 179.708 82.173 180.156 82.173H183.707C184.81 82.173 185.638 82.4164 186.224 82.903C186.81 83.3896 187.12 84.0848 187.12 84.9539C187.12 85.5448 186.982 86.0314 186.672 86.4485C186.361 86.8657 185.948 87.1785 185.431 87.3523C186.051 87.5261 186.534 87.8042 186.879 88.2561C187.223 88.6732 187.396 89.2294 187.396 89.8898C187.396 90.8283 187.085 91.5583 186.465 92.0797C185.844 92.5663 184.983 92.8444 183.879 92.8444H180.156ZM180.673 86.9352H183.535C185.12 86.9352 185.913 86.3095 185.913 85.0581C185.913 83.8068 185.12 83.1811 183.535 83.1811H180.673V86.9352ZM180.673 91.8364H183.776C185.362 91.8364 186.189 91.1759 186.189 89.8898C186.189 88.6037 185.396 87.9432 183.776 87.9432H180.673V91.8364ZM192.015 92.9835C190.257 92.9835 189.395 92.0102 189.395 90.0636V86.0314C189.395 85.6143 189.602 85.4057 189.981 85.4057C190.395 85.4057 190.602 85.6143 190.602 86.0314V90.0288C190.602 90.6893 190.74 91.1759 191.015 91.4888C191.291 91.8016 191.705 91.9407 192.256 91.9407C192.877 91.9407 193.394 91.7321 193.773 91.315C194.152 90.8979 194.359 90.3417 194.359 89.6465V85.9967C194.359 85.5795 194.566 85.371 194.98 85.371C195.393 85.371 195.566 85.5795 195.566 85.9967V92.2883C195.566 92.7054 195.359 92.9139 194.98 92.9139C194.566 92.9139 194.394 92.7054 194.394 92.2883V91.5931C194.152 92.0449 193.842 92.3925 193.428 92.6011C193.015 92.8444 192.532 92.9835 192.015 92.9835ZM200.633 92.9835C199.978 92.9835 199.427 92.8444 198.944 92.5316C198.462 92.2187 198.082 91.7669 197.807 91.2107C197.531 90.6545 197.393 89.9593 197.393 89.1946C197.393 88.3951 197.531 87.7347 197.807 87.1785C198.082 86.6223 198.462 86.1705 198.944 85.8576C199.427 85.5448 199.978 85.4057 200.633 85.4057C201.219 85.4057 201.702 85.5448 202.15 85.7881C202.598 86.0314 202.909 86.379 203.115 86.8309V82.764C203.115 82.3468 203.322 82.1383 203.736 82.1383C204.15 82.1383 204.322 82.3468 204.322 82.764V92.3578C204.322 92.7749 204.115 92.9835 203.736 92.9835C203.322 92.9835 203.15 92.7749 203.15 92.3578V91.5583C202.943 92.0102 202.598 92.3578 202.185 92.6359C201.702 92.8444 201.185 92.9835 200.633 92.9835ZM200.875 91.9754C201.564 91.9754 202.081 91.7321 202.495 91.2455C202.909 90.7588 203.115 90.0636 203.115 89.1598C203.115 88.2561 202.909 87.5609 202.495 87.0742C202.081 86.5876 201.53 86.3443 200.875 86.3443C200.185 86.3443 199.634 86.5876 199.22 87.0742C198.806 87.5609 198.599 88.2561 198.599 89.1598C198.599 90.0636 198.806 90.7588 199.22 91.2455C199.634 91.7321 200.185 91.9754 200.875 91.9754ZM209.355 92.9835C208.7 92.9835 208.148 92.8444 207.666 92.5316C207.183 92.2187 206.804 91.7669 206.528 91.2107C206.252 90.6545 206.115 89.9593 206.115 89.1946C206.115 88.3951 206.252 87.7347 206.528 87.1785C206.804 86.6223 207.183 86.1705 207.666 85.8576C208.148 85.5448 208.7 85.4057 209.355 85.4057C209.941 85.4057 210.424 85.5448 210.872 85.7881C211.32 86.0314 211.63 86.379 211.837 86.8309V82.764C211.837 82.3468 212.044 82.1383 212.458 82.1383C212.871 82.1383 213.044 82.3468 213.044 82.764V92.3578C213.044 92.7749 212.837 92.9835 212.458 92.9835C212.044 92.9835 211.872 92.7749 211.872 92.3578V91.5583C211.665 92.0102 211.32 92.3578 210.906 92.6359C210.424 92.8444 209.907 92.9835 209.355 92.9835ZM209.596 91.9754C210.286 91.9754 210.803 91.7321 211.217 91.2455C211.63 90.7588 211.837 90.0636 211.837 89.1598C211.837 88.2561 211.63 87.5609 211.217 87.0742C210.803 86.5876 210.251 86.3443 209.596 86.3443C208.907 86.3443 208.355 86.5876 207.942 87.0742C207.528 87.5609 207.321 88.2561 207.321 89.1598C207.321 90.0636 207.528 90.7588 207.942 91.2455C208.355 91.7321 208.907 91.9754 209.596 91.9754ZM216.939 95.66C216.698 95.66 216.56 95.5557 216.491 95.3819C216.422 95.2081 216.422 94.9996 216.491 94.791L217.422 92.7054L214.664 86.24C214.56 85.9967 214.56 85.8229 214.664 85.6491C214.767 85.4753 214.94 85.4057 215.215 85.4057C215.491 85.4057 215.698 85.5795 215.836 85.8924L218.111 91.454L220.386 85.8924C220.455 85.7186 220.559 85.5795 220.628 85.51C220.697 85.4405 220.835 85.4057 221.007 85.4057C221.248 85.4057 221.386 85.4753 221.455 85.6491C221.524 85.8229 221.524 86.0314 221.455 86.24L217.629 95.1734C217.56 95.3472 217.456 95.4862 217.353 95.5557C217.249 95.6252 217.111 95.66 216.939 95.66ZM227.695 92.9487C227.247 92.9487 227.04 92.7054 227.04 92.2535V82.8682C227.04 82.4164 227.281 82.173 227.729 82.173H233.176C233.521 82.173 233.693 82.3468 233.693 82.6944C233.693 83.042 233.521 83.2158 233.176 83.2158H228.281V86.9352H232.866C233.21 86.9352 233.417 87.109 233.417 87.4566C233.417 87.8042 233.245 87.978 232.866 87.978H228.281V92.2535C228.281 92.7054 228.074 92.9487 227.695 92.9487ZM237.83 92.9835C237.106 92.9835 236.52 92.8444 236.003 92.5316C235.486 92.2187 235.072 91.7669 234.796 91.2107C234.52 90.6545 234.382 89.9593 234.382 89.1946C234.382 88.4299 234.52 87.7347 234.796 87.1785C235.072 86.6223 235.486 86.1705 236.003 85.8576C236.52 85.5448 237.14 85.4057 237.83 85.4057C238.519 85.4057 239.14 85.5448 239.657 85.8576C240.174 86.1705 240.588 86.6223 240.863 87.1785C241.139 87.7347 241.277 88.4299 241.277 89.1946C241.277 89.9593 241.139 90.6545 240.863 91.2107C240.588 91.7669 240.174 92.2187 239.657 92.5316C239.14 92.8097 238.519 92.9835 237.83 92.9835ZM237.83 91.9754C238.519 91.9754 239.036 91.7321 239.45 91.2455C239.864 90.7588 240.071 90.0636 240.071 89.1598C240.071 88.2561 239.864 87.5609 239.45 87.0742C239.036 86.5876 238.485 86.3443 237.83 86.3443C237.14 86.3443 236.589 86.5876 236.175 87.0742C235.761 87.5609 235.555 88.2561 235.555 89.1598C235.555 90.0636 235.761 90.7588 236.175 91.2455C236.589 91.7321 237.14 91.9754 237.83 91.9754ZM243.759 92.9487C243.345 92.9487 243.139 92.7401 243.139 92.323V86.0314C243.139 85.6143 243.345 85.4057 243.725 85.4057C244.138 85.4057 244.311 85.6143 244.311 86.0314V86.8309C244.518 86.379 244.828 85.9967 245.241 85.7533C245.655 85.51 246.172 85.371 246.724 85.3362C247.034 85.3015 247.206 85.4753 247.241 85.8229C247.275 86.1705 247.103 86.379 246.689 86.4138L246.448 86.4485C245.759 86.5181 245.241 86.7266 244.862 87.109C244.518 87.4914 244.311 88.0128 244.311 88.6732V92.323C244.345 92.7401 244.138 92.9487 243.759 92.9487ZM253.205 92.8444C252.757 92.8444 252.515 92.6011 252.515 92.1492V82.8682C252.515 82.4164 252.757 82.173 253.205 82.173H256.755C257.859 82.173 258.686 82.4164 259.272 82.903C259.858 83.3896 260.168 84.0848 260.168 84.9539C260.168 85.5448 260.03 86.0314 259.72 86.4485C259.41 86.8657 258.996 87.1785 258.479 87.3523C259.1 87.5261 259.582 87.8042 259.927 88.2561C260.272 88.6732 260.444 89.2294 260.444 89.8898C260.444 90.8283 260.134 91.5583 259.513 92.0797C258.893 92.5663 258.031 92.8444 256.928 92.8444H253.205ZM253.722 86.9352H256.583C258.169 86.9352 258.962 86.3095 258.962 85.0581C258.962 83.8068 258.169 83.1811 256.583 83.1811H253.722V86.9352ZM253.722 91.8364H256.824C258.41 91.8364 259.238 91.1759 259.238 89.8898C259.238 88.6037 258.445 87.9432 256.824 87.9432H253.722V91.8364ZM265.753 92.9835C264.615 92.9835 263.685 92.6359 263.03 91.9754C262.375 91.2802 262.03 90.3764 262.03 89.1946C262.03 88.4299 262.168 87.7694 262.478 87.1785C262.788 86.5876 263.202 86.1357 263.719 85.8229C264.236 85.51 264.857 85.3362 265.546 85.3362C266.546 85.3362 267.304 85.6491 267.856 86.3095C268.407 86.9352 268.683 87.8389 268.683 88.9513C268.683 89.2641 268.511 89.4032 268.166 89.4032H263.202C263.236 90.2374 263.478 90.8631 263.926 91.315C264.374 91.7669 264.96 91.9754 265.753 91.9754C266.098 91.9754 266.408 91.9407 266.753 91.8364C267.097 91.7669 267.408 91.5931 267.752 91.3845C267.994 91.2455 268.166 91.2107 268.338 91.2802C268.476 91.3845 268.58 91.5235 268.58 91.6973C268.58 91.8711 268.476 92.0449 268.269 92.184C267.925 92.4273 267.546 92.6011 267.097 92.7401C266.649 92.9139 266.201 92.9835 265.753 92.9835ZM265.581 86.2747C264.891 86.2747 264.34 86.4833 263.96 86.9352C263.547 87.3523 263.34 87.9432 263.271 88.6384H267.683C267.649 87.9085 267.477 87.3175 267.097 86.9004C266.718 86.4833 266.236 86.2747 265.581 86.2747ZM273.371 92.9835C272.51 92.9835 271.855 92.7401 271.441 92.2883C271.027 91.8364 270.786 91.1759 270.786 90.3069V86.4485H269.786C269.442 86.4485 269.269 86.2747 269.269 85.9619C269.269 85.6491 269.442 85.51 269.786 85.51H270.786V83.772C270.786 83.3549 270.993 83.1463 271.407 83.1463C271.82 83.1463 271.993 83.3549 271.993 83.772V85.51H273.889C274.233 85.51 274.406 85.6491 274.406 85.9619C274.406 86.2747 274.233 86.4485 273.889 86.4485H271.993V90.1679C271.993 90.7588 272.096 91.1759 272.337 91.4888C272.579 91.8016 272.958 91.9407 273.509 91.9407C273.716 91.9407 273.854 91.9059 273.992 91.8711C274.13 91.8364 274.233 91.8016 274.337 91.8016C274.44 91.8016 274.509 91.8364 274.578 91.9059C274.647 91.9754 274.681 92.1145 274.681 92.2535C274.681 92.3578 274.647 92.4968 274.613 92.6011C274.578 92.7054 274.475 92.7749 274.371 92.8097C274.268 92.8444 274.095 92.8792 273.889 92.9139C273.716 92.9487 273.544 92.9835 273.371 92.9835Z" fill="#353535"/>
<path d="M278.439 92.984C277.577 92.984 276.922 92.7407 276.509 92.2888C276.095 91.837 275.854 91.1765 275.854 90.3075V86.4491H274.854C274.509 86.4491 274.337 86.2753 274.337 85.9625C274.337 85.6496 274.509 85.5106 274.854 85.5106H275.854V83.7726C275.854 83.3555 276.061 83.1469 276.474 83.1469C276.888 83.1469 277.06 83.3555 277.06 83.7726V85.5106H278.956C279.301 85.5106 279.473 85.6496 279.473 85.9625C279.473 86.2753 279.301 86.4491 278.956 86.4491H277.06V90.1685C277.06 90.7594 277.164 91.1765 277.405 91.4894C277.646 91.8022 278.026 91.9412 278.577 91.9412C278.784 91.9412 278.922 91.9065 279.06 91.8717C279.198 91.837 279.301 91.8022 279.404 91.8022C279.508 91.8022 279.577 91.837 279.646 91.9065C279.715 91.976 279.749 92.115 279.749 92.2541C279.749 92.3584 279.715 92.4974 279.68 92.6017C279.646 92.706 279.542 92.7755 279.439 92.8102C279.336 92.845 279.163 92.8798 278.956 92.9145C278.749 92.9493 278.577 92.984 278.439 92.984ZM283.955 92.984C282.817 92.984 281.887 92.6364 281.232 91.976C280.577 91.2808 280.232 90.377 280.232 89.1952C280.232 88.4305 280.37 87.77 280.68 87.1791C280.99 86.5882 281.404 86.1363 281.921 85.8234C282.438 85.5106 283.059 85.3368 283.748 85.3368C284.748 85.3368 285.506 85.6496 286.058 86.3101C286.609 86.9358 286.885 87.8395 286.885 88.9519C286.885 89.2647 286.713 89.4037 286.368 89.4037H281.404C281.438 90.238 281.68 90.8637 282.128 91.3156C282.576 91.7674 283.162 91.976 283.955 91.976C284.3 91.976 284.61 91.9412 284.955 91.837C285.299 91.7674 285.61 91.5936 285.954 91.3851C286.196 91.246 286.368 91.2113 286.54 91.2808C286.678 91.3851 286.782 91.5241 286.782 91.6979C286.782 91.8717 286.678 92.0455 286.471 92.1846C286.127 92.4279 285.747 92.6017 285.299 92.7407C284.817 92.9145 284.369 92.984 283.955 92.984ZM283.748 86.2753C283.059 86.2753 282.507 86.4839 282.128 86.9358C281.714 87.3529 281.507 87.9438 281.438 88.639H285.851C285.816 87.9091 285.644 87.3181 285.265 86.901C284.92 86.4839 284.403 86.2753 283.748 86.2753ZM289.264 92.9493C288.85 92.9493 288.643 92.7407 288.643 92.3236V86.032C288.643 85.6149 288.85 85.4063 289.229 85.4063C289.643 85.4063 289.815 85.6149 289.815 86.032V86.8315C290.022 86.3796 290.332 85.9972 290.746 85.7539C291.16 85.5106 291.677 85.3716 292.228 85.3368C292.539 85.302 292.711 85.4758 292.746 85.8234C292.78 86.171 292.608 86.3796 292.194 86.4144L291.953 86.4491C291.263 86.5186 290.746 86.7272 290.367 87.1096C290.022 87.4919 289.815 88.0133 289.815 88.6738V92.3236C289.884 92.7407 289.677 92.9493 289.264 92.9493ZM298.64 92.9493C298.227 92.9493 298.02 92.7407 298.02 92.2888V82.7298C298.02 82.3127 298.227 82.0693 298.64 82.0693C299.054 82.0693 299.261 82.2779 299.261 82.7298V86.901H305.604V82.7298C305.604 82.3127 305.811 82.0693 306.224 82.0693C306.638 82.0693 306.845 82.2779 306.845 82.7298V92.2888C306.845 92.706 306.638 92.9493 306.224 92.9493C305.811 92.9493 305.604 92.7407 305.604 92.2888V87.9786H299.261V92.2888C299.261 92.7407 299.054 92.9493 298.64 92.9493ZM312.533 92.984C311.395 92.984 310.465 92.6364 309.81 91.976C309.155 91.2808 308.81 90.377 308.81 89.1952C308.81 88.4305 308.948 87.77 309.258 87.1791C309.568 86.5882 309.982 86.1363 310.499 85.8234C311.016 85.5106 311.637 85.3368 312.326 85.3368C313.326 85.3368 314.084 85.6496 314.636 86.3101C315.188 86.9358 315.463 87.8395 315.463 88.9519C315.463 89.2647 315.291 89.4037 314.946 89.4037H309.982C310.017 90.238 310.258 90.8637 310.706 91.3156C311.154 91.7674 311.74 91.976 312.533 91.976C312.878 91.976 313.188 91.9412 313.533 91.837C313.878 91.7674 314.188 91.5936 314.533 91.3851C314.774 91.246 314.946 91.2113 315.119 91.2808C315.256 91.3851 315.36 91.5241 315.36 91.6979C315.36 91.8717 315.256 92.0455 315.05 92.1846C314.705 92.4279 314.326 92.6017 313.878 92.7407C313.429 92.9145 312.981 92.984 312.533 92.984ZM312.361 86.2753C311.671 86.2753 311.12 86.4839 310.74 86.9358C310.327 87.3529 310.12 87.9438 310.051 88.639H314.464C314.429 87.9091 314.257 87.3181 313.878 86.901C313.498 86.4839 313.016 86.2753 312.361 86.2753ZM319.531 92.984C319.048 92.984 318.6 92.8798 318.187 92.706C317.773 92.5322 317.497 92.2541 317.256 91.9065C317.015 91.5589 316.911 91.1765 316.911 90.7594C316.911 90.238 317.049 89.7861 317.325 89.4733C317.601 89.1604 318.049 88.9519 318.704 88.8128C319.324 88.6738 320.221 88.6043 321.289 88.6043H321.772V88.1524C321.772 87.5267 321.634 87.0748 321.393 86.7967C321.151 86.5186 320.738 86.3796 320.186 86.3796C319.841 86.3796 319.497 86.4144 319.117 86.5186C318.773 86.6229 318.393 86.762 318.014 86.9705C317.842 87.0748 317.704 87.0748 317.601 87.04C317.497 86.9705 317.394 86.901 317.359 86.762C317.325 86.6229 317.325 86.5186 317.359 86.3796C317.394 86.2406 317.497 86.1363 317.635 86.0668C318.049 85.8582 318.497 85.6844 318.945 85.5801C319.393 85.4758 319.807 85.4411 320.186 85.4411C321.117 85.4411 321.806 85.6844 322.289 86.1363C322.737 86.5882 322.978 87.3181 322.978 88.2914V92.3931C322.978 92.8102 322.806 93.0188 322.427 93.0188C322.048 93.0188 321.841 92.8102 321.841 92.3931V91.6632C321.634 92.0803 321.358 92.4279 320.979 92.706C320.531 92.845 320.048 92.984 319.531 92.984ZM319.738 92.0455C320.324 92.0455 320.841 91.837 321.22 91.4198C321.599 91.0027 321.806 90.4813 321.806 89.8209V89.369H321.289C320.496 89.369 319.841 89.4037 319.393 89.4733C318.945 89.5428 318.6 89.6818 318.428 89.8556C318.256 90.0294 318.152 90.3075 318.152 90.6204C318.152 91.0375 318.29 91.3851 318.566 91.6284C318.842 91.9065 319.221 92.0455 319.738 92.0455ZM327.391 92.984C326.667 92.984 326.115 92.7755 325.736 92.3236C325.357 91.8717 325.15 91.246 325.15 90.4118V82.695C325.15 82.2779 325.357 82.0693 325.736 82.0693C326.15 82.0693 326.357 82.2779 326.357 82.695V90.3075C326.357 91.3851 326.77 91.9065 327.632 91.9065H328.08C328.184 91.9065 328.253 91.9065 328.322 91.976C328.356 92.0455 328.391 92.1498 328.391 92.3236C328.391 92.6712 328.218 92.845 327.874 92.9145C327.805 92.9493 327.701 92.9493 327.632 92.9493C327.563 92.984 327.46 92.984 327.391 92.984ZM332.39 92.984C331.528 92.984 330.873 92.7407 330.459 92.2888C330.045 91.837 329.804 91.1765 329.804 90.3075V86.4491H328.804C328.46 86.4491 328.287 86.2753 328.287 85.9625C328.287 85.6496 328.46 85.5106 328.804 85.5106H329.804V83.7726C329.804 83.3555 330.011 83.1469 330.425 83.1469C330.838 83.1469 331.011 83.3555 331.011 83.7726V85.5106H332.907C333.251 85.5106 333.424 85.6496 333.424 85.9625C333.424 86.2753 333.251 86.4491 332.907 86.4491H331.011V90.1685C331.011 90.7594 331.114 91.1765 331.355 91.4894C331.597 91.8022 331.976 91.9412 332.527 91.9412C332.734 91.9412 332.872 91.9065 333.01 91.8717C333.148 91.837 333.251 91.8022 333.355 91.8022C333.458 91.8022 333.527 91.837 333.596 91.9065C333.665 91.976 333.7 92.115 333.7 92.2541C333.7 92.3584 333.665 92.4974 333.631 92.6017C333.596 92.706 333.493 92.7755 333.389 92.8102C333.286 92.845 333.113 92.8798 332.907 92.9145C332.734 92.9493 332.562 92.984 332.39 92.984ZM335.423 92.9493C335.01 92.9493 334.837 92.7407 334.837 92.3236V82.7298C334.837 82.3127 335.044 82.1041 335.423 82.1041C335.837 82.1041 336.044 82.3127 336.044 82.7298V86.7272C336.285 86.2753 336.63 85.9625 337.043 85.7192C337.492 85.4758 337.974 85.3716 338.491 85.3716C340.215 85.3716 341.077 86.3448 341.077 88.2567V92.2888C341.077 92.706 340.87 92.9145 340.491 92.9145C340.077 92.9145 339.87 92.706 339.87 92.2888V88.3262C339.87 87.631 339.732 87.1443 339.457 86.8315C339.181 86.5186 338.767 86.3448 338.181 86.3448C337.526 86.3448 336.974 86.5534 336.595 86.9705C336.216 87.3876 336.009 87.9438 336.009 88.639V92.2888C336.009 92.7407 335.802 92.9493 335.423 92.9493Z" fill="#353535"/>
<path d="M351.832 41.5729C350.97 41.5729 350.212 41.4339 349.488 41.1211C348.764 40.8082 348.143 40.3911 347.592 39.8349C347.04 39.2788 346.627 38.6531 346.316 37.9231C346.006 37.1931 345.868 36.3937 345.868 35.5594C345.868 34.7252 346.006 33.9257 346.316 33.1957C346.627 32.4658 347.04 31.8401 347.592 31.2839C348.143 30.7277 348.764 30.3106 349.488 29.9978C350.212 29.6849 351.005 29.5459 351.832 29.5459C352.694 29.5459 353.452 29.6849 354.176 29.9978C354.9 30.3106 355.521 30.7277 356.072 31.2839C356.624 31.8401 357.037 32.4658 357.348 33.1957C357.658 33.9257 357.796 34.7252 357.796 35.5594C357.796 36.3937 357.658 37.1931 357.348 37.9231C357.037 38.6531 356.624 39.2788 356.072 39.8349C355.521 40.3911 354.9 40.8082 354.176 41.1211C353.452 41.3991 352.694 41.5729 351.832 41.5729ZM351.832 40.6692C352.797 40.6692 353.659 40.4258 354.417 39.974C355.176 39.5221 355.762 38.8964 356.21 38.1317C356.658 37.3669 356.865 36.4979 356.865 35.5247C356.865 34.5514 356.658 33.6824 356.21 32.9176C355.762 32.1529 355.176 31.5272 354.417 31.0753C353.659 30.6235 352.797 30.4149 351.832 30.4149C350.867 30.4149 350.005 30.6235 349.247 31.0753C348.488 31.5272 347.868 32.1529 347.454 32.9176C347.006 33.6824 346.799 34.5514 346.799 35.5247C346.799 36.4979 347.006 37.3669 347.454 38.1317C347.902 38.8964 348.488 39.5221 349.247 39.974C350.005 40.4606 350.867 40.6692 351.832 40.6692Z" fill="#F40009"/>
<path d="M349.626 37.5757C349.488 37.5757 349.385 37.541 349.316 37.4715C349.247 37.4019 349.212 37.2977 349.212 37.1586V34.343H348.247C348.006 34.343 347.902 34.2388 347.902 33.9954C347.902 33.7521 348.006 33.6478 348.247 33.6478H351.074C351.315 33.6478 351.419 33.7521 351.419 33.9954C351.419 34.2388 351.315 34.343 351.074 34.343H350.109V37.1586C350.109 37.2977 350.074 37.4019 350.005 37.4715C349.867 37.5062 349.764 37.5757 349.626 37.5757ZM352.143 37.5757C352.005 37.5757 351.936 37.541 351.867 37.4715C351.798 37.4019 351.763 37.2977 351.763 37.1586V33.9259C351.763 33.7869 351.798 33.6826 351.867 33.6131C351.936 33.5435 352.039 33.5088 352.177 33.5088C352.28 33.5088 352.384 33.5435 352.453 33.5783C352.522 33.6131 352.591 33.6826 352.625 33.7869L353.797 35.9768L354.969 33.7869C355.038 33.6826 355.073 33.6131 355.142 33.5783C355.211 33.5435 355.28 33.5088 355.383 33.5088C355.521 33.5088 355.59 33.5435 355.659 33.6131C355.728 33.6826 355.762 33.7869 355.762 33.9259V37.1586C355.762 37.4367 355.624 37.5757 355.383 37.5757C355.107 37.5757 355.004 37.4367 355.004 37.1586V35.1078L354.107 36.7415C354.073 36.811 354.004 36.8805 353.97 36.9153C353.935 36.95 353.866 36.9848 353.763 36.9848C353.694 36.9848 353.625 36.95 353.556 36.9153C353.487 36.8805 353.452 36.811 353.418 36.7415L352.522 35.1078V37.1586C352.522 37.4367 352.418 37.5757 352.143 37.5757Z" fill="#F40009"/>
</g>
<defs>
<clipPath id="clip0_1_157">
<rect width="368" height="108" fill="white"/>
</clipPath>
</defs>
</svg>
