<svg width="257" height="75" viewBox="0 0 257 75" fill="none" xmlns="http://www.w3.org/2000/svg">
<g clip-path="url(#clip0_5_2817)">
<path d="M44.6589 46.9021C43.9126 46.7814 43.1663 46.54 42.5163 46.1538C42.444 46.1055 42.3718 46.1297 42.3237 46.178L33.2474 55.2784C32.0918 56.5578 30.1418 56.6543 28.8658 55.4956C27.6139 54.3611 27.4935 52.4541 28.5769 51.1747L28.6491 51.1023L28.6732 51.0782C28.7454 51.0058 28.7936 50.9334 28.8658 50.8851L37.8698 41.8571C37.918 41.8088 37.918 41.7364 37.8698 41.6881L36.329 40.1432C36.2809 40.0949 36.2086 40.0949 36.1605 40.1432L27.1565 49.1712L27.1324 49.1953L27.0842 49.2436C25.8564 50.4506 23.9063 50.4264 22.7026 49.1953C21.547 48.0125 21.5229 46.1055 22.6544 44.8986L22.7507 44.802L31.7307 35.7982C31.7789 35.7499 31.7789 35.6775 31.7307 35.6292L30.1899 34.0843C30.1418 34.036 30.0695 34.036 30.0214 34.0843L20.9451 43.1364C18.7784 45.309 18.7784 48.8091 20.9451 50.9816C21.9803 52.0196 23.3767 52.5989 24.8453 52.5989C25.0379 52.5989 25.2545 52.5989 25.4471 52.5748C25.4231 52.7679 25.4231 52.9852 25.4231 53.1783C25.4231 56.2439 27.9028 58.7303 30.9603 58.7303C32.4289 58.7303 33.8252 58.1509 34.8604 57.113L44.7552 47.1918C44.8275 47.1194 44.8275 47.0228 44.7552 46.9746C44.7312 46.9263 44.683 46.9263 44.6589 46.9021Z" fill="#1778F2"/>
<path d="M19.6212 20.3734C20.3675 20.4941 21.1138 20.7354 21.7638 21.1217C21.8361 21.1699 21.9083 21.1458 21.9564 21.0975L31.0327 11.9971C32.1883 10.7177 34.1384 10.6212 35.4143 11.7799C36.6662 12.9144 36.7866 14.8214 35.7032 16.1007L35.631 16.1732L35.6069 16.1973C35.5347 16.2697 35.4866 16.3421 35.4143 16.3904L26.4103 25.4184C26.3622 25.4667 26.3622 25.5391 26.4103 25.5874L27.9511 27.1323C27.9993 27.1806 28.0715 27.1806 28.1196 27.1323L37.1237 18.1043L37.1477 18.0801L37.1959 18.0319C38.4237 16.8249 40.3738 16.8491 41.5775 18.0801C42.7331 19.263 42.7572 21.1699 41.6257 22.3769L41.5294 22.4735L32.5494 31.4773C32.5013 31.5256 32.5013 31.598 32.5494 31.6463L34.0902 33.1912C34.1384 33.2395 34.2106 33.2395 34.2587 33.1912L43.335 24.139C45.5017 21.9665 45.5017 18.4664 43.335 16.2939C42.2998 15.2559 40.9034 14.6765 39.4348 14.6765C39.2422 14.6765 39.0256 14.6765 38.833 14.7007C38.857 14.5076 38.857 14.2903 38.857 14.0972C38.857 11.0315 36.3773 8.54523 33.3198 8.54523C31.8512 8.54523 30.4549 9.12456 29.4197 10.1625L19.5249 20.1078C19.4526 20.1802 19.4526 20.2768 19.5249 20.3251C19.5489 20.3492 19.5971 20.3734 19.6212 20.3734Z" fill="#1778F2"/>
<path d="M45.3813 21.0734C45.2609 21.8217 45.0202 22.57 44.635 23.2218C44.5868 23.2942 44.6109 23.3666 44.659 23.4149L53.7353 32.5153C55.0113 33.674 55.1076 35.6292 53.952 36.9086L53.9279 36.9328C52.8927 38.188 51.0389 38.3811 49.7629 37.319C49.6907 37.2707 49.6185 37.1983 49.5463 37.1259L49.5222 37.1017C49.45 37.0293 49.3777 36.981 49.3296 36.9086L40.3256 27.8806C40.2774 27.8323 40.2052 27.8323 40.157 27.8806L38.6162 29.4255C38.5681 29.4738 38.5681 29.5462 38.6162 29.5945L47.6203 38.6225L47.6443 38.6466L47.6925 38.6949C48.8962 39.926 48.8722 41.8813 47.6443 43.0882C46.4647 44.2469 44.5628 44.271 43.359 43.1365L43.2627 43.0399L35.0291 34.7844L31.7549 31.5015L22.6546 22.4011C20.4878 20.2285 16.9969 20.2285 14.8302 22.4011C13.8191 23.4632 13.2413 24.8632 13.2413 26.3357C13.2413 26.5288 13.2413 26.7461 13.2653 26.9392C13.0727 26.9151 12.8561 26.9151 12.6635 26.9151C9.60594 26.9151 7.12622 29.4014 7.12622 32.467C7.12622 33.9395 7.70402 35.3396 8.73924 36.3776L18.634 46.2987C18.7063 46.3711 18.8026 46.3711 18.8507 46.2987C18.8748 46.2746 18.8989 46.2504 18.8989 46.2021C19.0192 45.4538 19.26 44.7055 19.6452 44.0538C19.6933 43.9814 19.6693 43.9089 19.6211 43.8607L10.5449 34.7602C9.26889 33.6016 9.17259 31.6463 10.3282 30.3669C11.4838 29.2083 13.3376 29.0876 14.6617 30.1014L14.7098 30.1497L14.7339 30.1738C14.8061 30.2462 14.8784 30.2945 14.9265 30.3669L23.9305 39.3949C23.9787 39.4432 24.0509 39.4432 24.0991 39.3949L25.6399 37.85C25.688 37.8018 25.688 37.7293 25.6399 37.6811L16.6358 28.6531L16.6117 28.6289L16.5636 28.5806C15.3599 27.3496 15.3839 25.3943 16.6117 24.1873C17.7914 23.0287 19.6933 23.0045 20.8971 24.1391L20.9934 24.2356L29.9252 33.1912L33.2475 36.5224L41.5775 44.8745C43.7442 47.047 47.2351 47.047 49.4018 44.8745C50.437 43.8365 51.0148 42.4365 51.0148 40.964C51.0148 40.7709 51.0148 40.5536 50.9908 40.3605C51.1834 40.3846 51.4 40.3846 51.5926 40.3846C54.6502 40.3846 57.1299 37.8983 57.1299 34.8327C57.1299 33.3602 56.5521 31.9601 55.5168 30.9221L45.6461 21.001C45.5739 20.9286 45.4776 20.9286 45.4294 21.001C45.4054 21.0251 45.3813 21.0493 45.3813 21.0734Z" fill="#F40009"/>
<path d="M86.7179 20.2285C86.2845 20.2285 85.9475 20.3251 85.7067 20.494C85.466 20.663 85.2493 20.9285 85.0567 21.3148L75.6193 39.2259L66.1338 21.3148C65.9412 20.9285 65.7004 20.663 65.4597 20.494C65.2189 20.3251 64.8819 20.2285 64.4726 20.2285C63.4855 20.2285 62.98 20.7596 62.98 21.7976V45.4538C62.98 46.4918 63.4855 47.0229 64.4726 47.0229C65.4356 47.0229 65.9171 46.4918 65.9171 45.4538V26.6736L74.1989 42.0502C74.3434 42.364 74.536 42.5813 74.7526 42.7502C74.9693 42.9192 75.2582 42.9916 75.6193 42.9916C75.9804 42.9916 76.2693 42.9192 76.4619 42.7744C76.6545 42.6295 76.8471 42.3882 77.0157 42.0502L85.2011 26.6254V45.4538C85.2011 46.4918 85.7067 47.0229 86.6938 47.0229C87.6809 47.0229 88.1864 46.4918 88.1864 45.4538V21.7976C88.1864 20.7596 87.6809 20.2285 86.7179 20.2285ZM108.12 37.15C108.12 34.3981 107.422 32.2015 106.026 30.6324C104.63 29.0634 102.68 28.2427 100.248 28.2427C98.5387 28.2427 97.0219 28.6289 95.7219 29.4255C94.4219 30.1979 93.3866 31.3325 92.6403 32.7567C91.894 34.1809 91.5329 35.8465 91.5329 37.7052C91.5329 40.5777 92.3755 42.8709 94.0367 44.5607C95.6978 46.2263 97.9849 47.0953 100.826 47.0953C101.885 47.0953 102.993 46.9263 104.124 46.6125C105.256 46.2987 106.243 45.8159 107.037 45.2366C107.567 44.8745 107.856 44.44 107.832 43.9572C107.808 43.4744 107.615 43.1123 107.206 42.8709C106.796 42.6295 106.291 42.702 105.689 43.0882C104.919 43.6192 104.1 44.0055 103.281 44.1986C102.463 44.4158 101.62 44.5124 100.826 44.5124C98.9479 44.5124 97.4553 43.9813 96.3719 42.9192C95.3367 41.8812 94.7348 40.3605 94.6385 38.3811H106.772C107.639 38.3811 108.12 37.9707 108.12 37.15ZM94.6385 36.2568C94.8311 34.5912 95.3849 33.2395 96.3479 32.2256C97.3108 31.1876 98.635 30.6566 100.296 30.6566C101.861 30.6566 103.089 31.1635 103.931 32.1532C104.774 33.1188 105.231 34.5188 105.328 36.2568H94.6385ZM125.334 20.2285C124.275 20.2285 123.745 20.7596 123.745 21.8217V31.4532C123.215 30.5117 122.469 29.7393 121.482 29.1841C120.399 28.5565 119.147 28.2427 117.726 28.2427C116.113 28.2427 114.693 28.6289 113.489 29.3772C112.285 30.1255 111.347 31.2359 110.697 32.636C110.046 34.036 109.709 35.7258 109.709 37.6569C109.709 39.5639 110.046 41.2295 110.697 42.6295C111.347 44.0296 112.285 45.14 113.489 45.9125C114.693 46.6849 116.113 47.0711 117.726 47.0711C119.147 47.0711 120.399 46.7573 121.482 46.1056C122.469 45.5262 123.24 44.7538 123.769 43.7641V45.3331C123.769 46.4194 124.299 46.9746 125.334 46.9746C126.369 46.9746 126.899 46.4194 126.899 45.3331V21.8458C126.899 20.7837 126.369 20.2285 125.334 20.2285ZM123.817 37.681C123.817 39.8777 123.312 41.5674 122.325 42.7502C121.338 43.9331 120.014 44.5124 118.376 44.5124C116.715 44.5124 115.367 43.9089 114.404 42.7502C113.417 41.5674 112.935 39.8777 112.935 37.681C112.935 35.4603 113.441 33.7464 114.404 32.5877C115.367 31.429 116.715 30.8497 118.376 30.8497C120.014 30.8497 121.338 31.429 122.325 32.5877C123.312 33.7464 123.817 35.4603 123.817 37.681ZM132.46 24.4528C133.808 24.4528 134.507 23.8011 134.507 22.5217C134.507 21.2665 133.808 20.6147 132.46 20.6147C131.112 20.6147 130.414 21.2424 130.414 22.5217C130.414 23.8011 131.088 24.4528 132.46 24.4528ZM132.46 28.4116C131.425 28.4116 130.895 28.9668 130.895 30.0772V45.2124C130.895 46.347 131.425 46.9263 132.46 46.9263C133.52 46.9263 134.049 46.347 134.049 45.2124V30.0772C134.049 28.9668 133.52 28.4116 132.46 28.4116Z" fill="#1778F2"/>
<path d="M155.356 33.2636C156.559 32.7808 157.522 32.0566 158.22 31.1152C158.967 30.1014 159.352 28.8462 159.352 27.3978C159.352 25.2253 158.606 23.5356 157.113 22.3286C155.644 21.1217 153.526 20.5182 150.829 20.5182H142.09C140.935 20.5182 140.333 21.0975 140.333 22.2803V45.0434C140.333 46.2021 140.911 46.8056 142.09 46.8056H151.287C154.031 46.8056 156.174 46.178 157.691 44.9469C159.208 43.6917 159.978 41.8812 159.978 39.5397C159.978 37.8983 159.545 36.5224 158.678 35.4602C157.859 34.3981 156.752 33.674 155.356 33.2636ZM156.8 39.4432C156.8 42.6054 154.898 44.1262 150.974 44.1262H143.463V34.7602H150.974C154.898 34.7602 156.8 36.3051 156.8 39.4432ZM143.463 32.1532V23.1011H150.396C154.296 23.1011 156.174 24.5977 156.174 27.6392C156.174 30.6807 154.272 32.1532 150.396 32.1532H143.463ZM177.143 28.3392C176.084 28.3392 175.554 28.8703 175.554 29.9324V38.888C175.554 40.5536 175.073 41.9054 174.134 42.9192C173.195 43.9089 171.967 44.44 170.475 44.44C169.102 44.44 168.091 44.0537 167.465 43.3296C166.839 42.5813 166.502 41.3985 166.502 39.8294V29.9324C166.502 28.8703 165.973 28.3392 164.913 28.3392C163.878 28.3392 163.348 28.8703 163.348 29.9324V39.8536C163.348 44.6572 165.539 47.0711 169.897 47.0711C171.173 47.0711 172.352 46.7815 173.388 46.2021C174.327 45.6711 175.073 44.9228 175.651 43.9572V45.3573C175.651 46.4435 176.18 46.9987 177.216 46.9987C178.227 46.9987 178.732 46.4435 178.732 45.3573V29.9324C178.708 28.8703 178.179 28.3392 177.143 28.3392ZM197.222 20.2285C196.163 20.2285 195.633 20.7596 195.633 21.8217V31.4532C195.103 30.5117 194.357 29.7393 193.37 29.1841C192.286 28.5565 191.035 28.2427 189.614 28.2427C188.001 28.2427 186.581 28.6289 185.377 29.3772C184.173 30.1255 183.234 31.2359 182.584 32.636C181.934 34.036 181.597 35.7258 181.597 37.6569C181.597 39.5639 181.934 41.2295 182.584 42.6295C183.234 44.0296 184.173 45.14 185.377 45.9125C186.581 46.6849 188.001 47.0711 189.614 47.0711C191.035 47.0711 192.286 46.7573 193.37 46.1056C194.357 45.5262 195.127 44.7538 195.657 43.7641V45.3331C195.657 46.4194 196.187 46.9746 197.222 46.9746C198.257 46.9746 198.787 46.4194 198.787 45.3331V21.8458C198.787 20.7837 198.257 20.2285 197.222 20.2285ZM195.705 37.681C195.705 39.8777 195.2 41.5674 194.212 42.7502C193.225 43.9331 191.901 44.5124 190.264 44.5124C188.603 44.5124 187.255 43.9089 186.292 42.7502C185.305 41.5674 184.823 39.8777 184.823 37.681C184.823 35.4603 185.329 33.7464 186.292 32.5877C187.255 31.429 188.603 30.8497 190.264 30.8497C191.901 30.8497 193.225 31.429 194.212 32.5877C195.2 33.7464 195.705 35.4603 195.705 37.681ZM217.3 20.2285C216.241 20.2285 215.711 20.7596 215.711 21.8217V31.4532C215.182 30.5117 214.435 29.7393 213.448 29.1841C212.365 28.5565 211.113 28.2427 209.693 28.2427C208.08 28.2427 206.659 28.6289 205.455 29.3772C204.252 30.1255 203.313 31.2359 202.663 32.636C202.013 34.036 201.676 35.7258 201.676 37.6569C201.676 39.5639 202.013 41.2295 202.663 42.6295C203.313 44.0296 204.252 45.14 205.455 45.9125C206.659 46.6849 208.08 47.0711 209.693 47.0711C211.113 47.0711 212.365 46.7573 213.448 46.1056C214.435 45.5262 215.206 44.7538 215.735 43.7641V45.3331C215.735 46.4194 216.265 46.9746 217.3 46.9746C218.336 46.9746 218.865 46.4194 218.865 45.3331V21.8458C218.865 20.7837 218.336 20.2285 217.3 20.2285ZM215.76 37.681C215.76 39.8777 215.254 41.5674 214.267 42.7502C213.28 43.9331 211.956 44.5124 210.319 44.5124C208.657 44.5124 207.309 43.9089 206.346 42.7502C205.359 41.5674 204.878 39.8777 204.878 37.681C204.878 35.4603 205.383 33.7464 206.346 32.5877C207.333 31.429 208.657 30.8497 210.319 30.8497C211.956 30.8497 213.28 31.429 214.267 32.5877C215.278 33.7464 215.76 35.4603 215.76 37.681ZM238.125 29.0151C237.908 28.5565 237.499 28.3392 236.897 28.3392C236.464 28.3392 236.127 28.4358 235.886 28.6048C235.645 28.7979 235.429 29.1117 235.236 29.5703L229.699 43.0399L224.21 29.5703C223.873 28.7496 223.343 28.3392 222.621 28.3392C221.923 28.3392 221.441 28.5565 221.2 29.0151C220.96 29.4496 220.96 29.9807 221.225 30.56L227.99 46.3711L225.751 51.4403C225.51 51.9955 225.51 52.5266 225.727 52.9611C225.943 53.4197 226.353 53.6611 226.954 53.6611C227.388 53.6611 227.725 53.5645 227.99 53.3956C228.23 53.2266 228.471 52.8886 228.664 52.43L238.101 30.5117C238.318 29.9807 238.318 29.4496 238.125 29.0151Z" fill="#F40009"/>
<path d="M65.9411 64.5478C65.6522 64.5478 65.5078 64.403 65.5078 64.0892V60.9752L63.0762 57.6199C62.9799 57.4751 62.9559 57.3544 63.0281 57.2095C63.1003 57.0647 63.1966 57.0164 63.3892 57.0164C63.5818 57.0164 63.7263 57.113 63.8707 57.3061L65.9893 60.2269L68.1079 57.3061C68.2523 57.113 68.3968 57.0164 68.5894 57.0164C68.7579 57.0164 68.8783 57.0888 68.9264 57.2095C68.9746 57.3302 68.9505 57.4751 68.8542 57.644L66.4226 60.9994V64.0892C66.3745 64.3788 66.23 64.5478 65.9411 64.5478ZM71.1413 64.5719C70.6358 64.5719 70.2265 64.4754 69.8654 64.2581C69.5042 64.0409 69.2153 63.7271 69.0227 63.3408C68.8301 62.9546 68.7338 62.4718 68.7338 61.9408C68.7338 61.4097 68.8301 60.9269 69.0227 60.5407C69.2153 60.1545 69.5042 59.8407 69.8654 59.6234C70.2265 59.4062 70.6598 59.3096 71.1413 59.3096C71.6228 59.3096 72.0562 59.4062 72.4173 59.6234C72.7784 59.8407 73.0673 60.1545 73.2599 60.5407C73.4525 60.9269 73.5488 61.4097 73.5488 61.9408C73.5488 62.4718 73.4525 62.9546 73.2599 63.3408C73.0673 63.7271 72.7784 64.0409 72.4173 64.2581C72.0562 64.4512 71.6228 64.5719 71.1413 64.5719ZM71.1413 63.8719C71.6228 63.8719 71.984 63.7029 72.2729 63.365C72.5618 63.027 72.7062 62.5443 72.7062 61.9166C72.7062 61.289 72.5618 60.8062 72.2729 60.4683C71.984 60.1304 71.5988 59.9614 71.1413 59.9614C70.6598 59.9614 70.2746 60.1304 69.9857 60.4683C69.6968 60.8062 69.5524 61.289 69.5524 61.9166C69.5524 62.5443 69.6968 63.027 69.9857 63.365C70.2746 63.7029 70.6598 63.8719 71.1413 63.8719ZM76.6545 64.5719C75.4267 64.5719 74.8248 63.896 74.8248 62.5443V59.7441C74.8248 59.4545 74.9693 59.3096 75.2341 59.3096C75.523 59.3096 75.6674 59.4545 75.6674 59.7441V62.5201C75.6674 62.9788 75.7637 63.3167 75.9563 63.534C76.1489 63.7512 76.4378 63.8478 76.823 63.8478C77.2564 63.8478 77.6175 63.7029 77.8823 63.4133C78.1471 63.1236 78.2916 62.7374 78.2916 62.2546V59.72C78.2916 59.4303 78.436 59.2855 78.7249 59.2855C79.0138 59.2855 79.1342 59.4303 79.1342 59.72V64.0892C79.1342 64.3788 78.9898 64.5237 78.7249 64.5237C78.436 64.5237 78.3157 64.3788 78.3157 64.0892V63.6064C78.1471 63.9202 77.9305 64.1616 77.6416 64.3064C77.3286 64.4754 77.0156 64.5719 76.6545 64.5719ZM81.1324 64.5478C80.8435 64.5478 80.6991 64.403 80.6991 64.1133V59.7441C80.6991 59.4545 80.8435 59.3096 81.1084 59.3096C81.3973 59.3096 81.5176 59.4545 81.5176 59.7441V60.2993C81.6621 59.9855 81.8788 59.72 82.1677 59.551C82.4566 59.382 82.8177 59.2855 83.2029 59.2614C83.4196 59.2372 83.5399 59.3579 83.564 59.5993C83.5881 59.8407 83.4677 59.9855 83.1788 60.0097L83.0103 60.0338C82.5288 60.0821 82.1677 60.2269 81.9028 60.4924C81.6621 60.758 81.5176 61.1201 81.5176 61.5787V64.1133C81.5658 64.403 81.4213 64.5478 81.1324 64.5478ZM89.5105 64.5478C89.2216 64.5478 89.0772 64.403 89.0772 64.0892V57.813H86.7178C86.453 57.813 86.3085 57.6923 86.3085 57.4268C86.3085 57.1854 86.453 57.0647 86.7178 57.0647H92.3032C92.568 57.0647 92.7125 57.1854 92.7125 57.4268C92.7125 57.6682 92.568 57.813 92.3032 57.813H89.9439V64.0892C89.9439 64.403 89.7994 64.5478 89.5105 64.5478ZM93.0977 64.5478C92.8088 64.5478 92.6643 64.403 92.6643 64.1133V59.7441C92.6643 59.4545 92.8088 59.3096 93.0736 59.3096C93.3625 59.3096 93.4829 59.4545 93.4829 59.7441V60.2993C93.6273 59.9855 93.844 59.72 94.1329 59.551C94.4218 59.382 94.7829 59.2855 95.1681 59.2614C95.3848 59.2372 95.5052 59.3579 95.5292 59.5993C95.5533 59.8407 95.433 59.9855 95.1441 60.0097L94.9755 60.0338C94.494 60.0821 94.1329 60.2269 93.8681 60.4924C93.6273 60.758 93.4829 61.1201 93.4829 61.5787V64.1133C93.531 64.403 93.3866 64.5478 93.0977 64.5478ZM98.2016 64.5719C96.9737 64.5719 96.3719 63.896 96.3719 62.5443V59.7441C96.3719 59.4545 96.5163 59.3096 96.7811 59.3096C97.07 59.3096 97.2145 59.4545 97.2145 59.7441V62.5201C97.2145 62.9788 97.3108 63.3167 97.5034 63.534C97.696 63.7512 97.9849 63.8478 98.3701 63.8478C98.8034 63.8478 99.1646 63.7029 99.4294 63.4133C99.6942 63.1236 99.8387 62.7374 99.8387 62.2546V59.72C99.8387 59.4303 99.9831 59.2855 100.272 59.2855C100.561 59.2855 100.681 59.4303 100.681 59.72V64.0892C100.681 64.3788 100.537 64.5237 100.272 64.5237C99.9831 64.5237 99.8627 64.3788 99.8627 64.0892V63.6064C99.6942 63.9202 99.4775 64.1616 99.1886 64.3064C98.8997 64.4754 98.5627 64.5719 98.2016 64.5719ZM104.004 64.5719C103.691 64.5719 103.378 64.5237 103.065 64.4512C102.752 64.3788 102.463 64.234 102.174 64.065C102.054 63.9926 101.981 63.896 101.981 63.7754C101.981 63.6547 102.029 63.5581 102.126 63.4857C102.222 63.4133 102.342 63.4133 102.463 63.4857C102.728 63.6547 102.992 63.7754 103.257 63.8478C103.522 63.9202 103.763 63.9443 104.028 63.9443C104.437 63.9443 104.726 63.8719 104.918 63.7271C105.111 63.5822 105.231 63.3891 105.231 63.1236C105.231 62.9305 105.159 62.7615 105.039 62.665C104.894 62.5443 104.702 62.4718 104.413 62.3994L103.45 62.1822C102.583 61.9891 102.15 61.5546 102.15 60.8304C102.15 60.3717 102.342 60.0097 102.704 59.72C103.065 59.4303 103.546 59.3096 104.148 59.3096C104.437 59.3096 104.726 59.3579 105.015 59.4303C105.304 59.5027 105.544 59.6476 105.761 59.8165C105.881 59.889 105.93 60.0097 105.93 60.1304C105.906 60.2511 105.857 60.3476 105.761 60.42C105.665 60.4924 105.544 60.4683 105.424 60.3959C105.207 60.251 104.991 60.1545 104.774 60.0821C104.557 60.0097 104.341 59.9855 104.124 59.9855C103.739 59.9855 103.426 60.0579 103.233 60.2269C103.041 60.3717 102.92 60.589 102.92 60.8304C102.92 61.2166 103.185 61.4821 103.691 61.5787L104.654 61.7718C105.111 61.8684 105.448 62.0373 105.665 62.2304C105.906 62.4477 106.002 62.7374 106.002 63.0995C106.002 63.5581 105.809 63.9443 105.448 64.2099C105.087 64.4271 104.606 64.5719 104.004 64.5719ZM109.3 64.5719C108.698 64.5719 108.241 64.403 107.952 64.0892C107.663 63.7754 107.494 63.3167 107.494 62.7132V60.0338H106.796C106.556 60.0338 106.435 59.9131 106.435 59.6959C106.435 59.4786 106.556 59.382 106.796 59.382H107.494V58.1751C107.494 57.8854 107.639 57.7406 107.928 57.7406C108.217 57.7406 108.337 57.8854 108.337 58.1751V59.382H109.661C109.902 59.382 110.022 59.4786 110.022 59.6959C110.022 59.9131 109.902 60.0338 109.661 60.0338H108.337V62.6167C108.337 63.027 108.409 63.3167 108.578 63.534C108.746 63.7512 109.011 63.8478 109.396 63.8478C109.541 63.8478 109.637 63.8236 109.733 63.7995C109.83 63.7753 109.902 63.7512 109.974 63.7512C110.046 63.7512 110.095 63.7753 110.143 63.8236C110.191 63.8719 110.215 63.9685 110.215 64.065C110.215 64.1374 110.191 64.234 110.167 64.3064C110.143 64.3788 110.071 64.4271 109.998 64.4512C109.926 64.4754 109.806 64.4995 109.661 64.5237C109.541 64.5478 109.396 64.5719 109.3 64.5719ZM113.152 64.5719C112.358 64.5719 111.708 64.3306 111.25 63.8719C110.793 63.3891 110.552 62.7615 110.552 61.9408C110.552 61.4097 110.648 60.9511 110.865 60.5407C111.082 60.1304 111.371 59.8165 111.732 59.5993C112.093 59.382 112.526 59.2614 113.008 59.2614C113.706 59.2614 114.235 59.4786 114.621 59.9372C115.006 60.3717 115.198 60.9994 115.198 61.7718C115.198 61.9891 115.078 62.0856 114.837 62.0856H111.371C111.395 62.665 111.563 63.0995 111.876 63.4133C112.189 63.7271 112.598 63.8719 113.152 63.8719C113.393 63.8719 113.61 63.8478 113.85 63.7754C114.091 63.7271 114.308 63.6064 114.548 63.4615C114.717 63.365 114.837 63.3408 114.958 63.3891C115.054 63.4615 115.126 63.5581 115.126 63.6788C115.126 63.7995 115.054 63.9202 114.91 64.0167C114.669 64.1857 114.404 64.3064 114.091 64.403C113.778 64.4995 113.465 64.5719 113.152 64.5719ZM113.032 59.9131C112.55 59.9131 112.165 60.0579 111.9 60.3717C111.611 60.6614 111.467 61.0718 111.419 61.5546H114.5C114.476 61.0476 114.356 60.6373 114.091 60.3476C113.826 60.0579 113.465 59.9131 113.032 59.9131ZM118.376 64.5719C117.919 64.5719 117.534 64.4754 117.197 64.2581C116.86 64.0409 116.595 63.7271 116.402 63.3408C116.21 62.9546 116.113 62.4718 116.113 61.9408C116.113 61.3856 116.21 60.9269 116.402 60.5407C116.595 60.1545 116.86 59.8407 117.197 59.6234C117.534 59.4062 117.919 59.3096 118.376 59.3096C118.786 59.3096 119.123 59.4062 119.436 59.5752C119.749 59.7441 119.965 59.9855 120.11 60.2993V57.4751C120.11 57.1854 120.254 57.0406 120.543 57.0406C120.832 57.0406 120.952 57.1854 120.952 57.4751V64.1374C120.952 64.4271 120.808 64.5719 120.543 64.5719C120.278 64.5719 120.134 64.4271 120.134 64.1374V63.5822C119.989 63.896 119.749 64.1374 119.46 64.3305C119.123 64.4754 118.762 64.5719 118.376 64.5719ZM118.545 63.8719C119.026 63.8719 119.388 63.7029 119.676 63.365C119.965 63.027 120.11 62.5443 120.11 61.9166C120.11 61.289 119.965 60.8062 119.676 60.4683C119.388 60.1304 119.002 59.9614 118.545 59.9614C118.063 59.9614 117.678 60.1304 117.389 60.4683C117.1 60.8062 116.956 61.289 116.956 61.9166C116.956 62.5443 117.1 63.027 117.389 63.365C117.678 63.7029 118.063 63.8719 118.545 63.8719ZM125.816 64.4754C125.503 64.4754 125.334 64.3064 125.334 63.9926V57.5475C125.334 57.2337 125.503 57.0647 125.816 57.0647H128.295C129.066 57.0647 129.643 57.2337 130.053 57.5716C130.462 57.9096 130.679 58.3923 130.679 58.9958C130.679 59.4062 130.582 59.7441 130.366 60.0338C130.149 60.3235 129.86 60.5407 129.499 60.6614C129.932 60.7821 130.269 60.9752 130.51 61.289C130.751 61.5787 130.871 61.9649 130.871 62.4236C130.871 63.0753 130.655 63.5822 130.221 63.9443C129.788 64.2823 129.186 64.4754 128.416 64.4754H125.816ZM126.177 60.3717H128.175C129.282 60.3717 129.836 59.9372 129.836 59.0682C129.836 58.1992 129.282 57.7647 128.175 57.7647H126.177V60.3717ZM126.177 63.7754H128.343C129.451 63.7754 130.029 63.3167 130.029 62.4236C130.029 61.5304 129.475 61.0718 128.343 61.0718H126.177V63.7754ZM134.097 64.5719C132.869 64.5719 132.268 63.896 132.268 62.5443V59.7441C132.268 59.4545 132.412 59.3096 132.677 59.3096C132.966 59.3096 133.11 59.4545 133.11 59.7441V62.5201C133.11 62.9788 133.207 63.3167 133.399 63.534C133.592 63.7512 133.881 63.8478 134.266 63.8478C134.699 63.8478 135.06 63.7029 135.325 63.4133C135.59 63.1236 135.734 62.7374 135.734 62.2546V59.72C135.734 59.4303 135.879 59.2855 136.168 59.2855C136.457 59.2855 136.577 59.4303 136.577 59.72V64.0892C136.577 64.3788 136.433 64.5237 136.168 64.5237C135.879 64.5237 135.758 64.3788 135.758 64.0892V63.6064C135.59 63.9202 135.373 64.1616 135.084 64.3064C134.795 64.4754 134.458 64.5719 134.097 64.5719ZM140.116 64.5719C139.659 64.5719 139.273 64.4754 138.936 64.2581C138.599 64.0409 138.334 63.7271 138.142 63.3408C137.949 62.9546 137.853 62.4718 137.853 61.9408C137.853 61.3856 137.949 60.9269 138.142 60.5407C138.334 60.1545 138.599 59.8407 138.936 59.6234C139.273 59.4062 139.659 59.3096 140.116 59.3096C140.525 59.3096 140.862 59.4062 141.175 59.5752C141.488 59.7441 141.705 59.9855 141.849 60.2993V57.4751C141.849 57.1854 141.994 57.0406 142.283 57.0406C142.572 57.0406 142.692 57.1854 142.692 57.4751V64.1374C142.692 64.4271 142.548 64.5719 142.283 64.5719C141.994 64.5719 141.874 64.4271 141.874 64.1374V63.5822C141.729 63.896 141.488 64.1374 141.199 64.3305C140.862 64.4754 140.501 64.5719 140.116 64.5719ZM140.285 63.8719C140.766 63.8719 141.127 63.7029 141.416 63.365C141.705 63.027 141.849 62.5443 141.849 61.9166C141.849 61.289 141.705 60.8062 141.416 60.4683C141.127 60.1304 140.742 59.9614 140.285 59.9614C139.803 59.9614 139.418 60.1304 139.129 60.4683C138.84 60.8062 138.696 61.289 138.696 61.9166C138.696 62.5443 138.84 63.027 139.129 63.365C139.418 63.7029 139.803 63.8719 140.285 63.8719ZM146.207 64.5719C145.75 64.5719 145.364 64.4754 145.027 64.2581C144.69 64.0409 144.425 63.7271 144.233 63.3408C144.04 62.9546 143.944 62.4718 143.944 61.9408C143.944 61.3856 144.04 60.9269 144.233 60.5407C144.425 60.1545 144.69 59.8407 145.027 59.6234C145.364 59.4062 145.75 59.3096 146.207 59.3096C146.616 59.3096 146.953 59.4062 147.266 59.5752C147.579 59.7441 147.796 59.9855 147.94 60.2993V57.4751C147.94 57.1854 148.085 57.0406 148.374 57.0406C148.663 57.0406 148.783 57.1854 148.783 57.4751V64.1374C148.783 64.4271 148.639 64.5719 148.374 64.5719C148.085 64.5719 147.964 64.4271 147.964 64.1374V63.5822C147.82 63.896 147.579 64.1374 147.29 64.3305C146.953 64.4754 146.592 64.5719 146.207 64.5719ZM146.376 63.8719C146.857 63.8719 147.218 63.7029 147.507 63.365C147.796 63.027 147.94 62.5443 147.94 61.9166C147.94 61.289 147.796 60.8062 147.507 60.4683C147.218 60.1304 146.833 59.9614 146.376 59.9614C145.894 59.9614 145.509 60.1304 145.22 60.4683C144.931 60.8062 144.787 61.289 144.787 61.9166C144.787 62.5443 144.931 63.027 145.22 63.365C145.509 63.7029 145.894 63.8719 146.376 63.8719ZM151.503 66.4306C151.335 66.4306 151.239 66.3582 151.191 66.2375C151.142 66.1168 151.142 65.972 151.191 65.8272L151.841 64.3788L149.915 59.889C149.842 59.72 149.842 59.5993 149.915 59.4786C149.987 59.3579 150.107 59.3096 150.3 59.3096C150.492 59.3096 150.637 59.4303 150.733 59.6476L152.322 63.5098L153.911 59.6476C153.959 59.5269 154.031 59.4303 154.08 59.382C154.128 59.3338 154.224 59.3096 154.344 59.3096C154.513 59.3096 154.609 59.3579 154.657 59.4786C154.705 59.5993 154.705 59.7441 154.657 59.889L151.985 66.0927C151.937 66.2134 151.865 66.3099 151.792 66.3582C151.72 66.4065 151.624 66.4306 151.503 66.4306ZM159.015 64.5478C158.702 64.5478 158.557 64.3788 158.557 64.065V57.5475C158.557 57.2337 158.726 57.0647 159.039 57.0647H162.843C163.084 57.0647 163.204 57.1854 163.204 57.4268C163.204 57.6682 163.084 57.7889 162.843 57.7889H159.424V60.3717H162.626C162.867 60.3717 163.011 60.4924 163.011 60.7338C163.011 60.9752 162.891 61.0959 162.626 61.0959H159.424V64.065C159.424 64.3788 159.28 64.5478 159.015 64.5478ZM166.093 64.5719C165.587 64.5719 165.178 64.4754 164.817 64.2581C164.456 64.0409 164.167 63.7271 163.974 63.3408C163.782 62.9546 163.685 62.4718 163.685 61.9408C163.685 61.4097 163.782 60.9269 163.974 60.5407C164.167 60.1545 164.456 59.8407 164.817 59.6234C165.178 59.4062 165.611 59.3096 166.093 59.3096C166.574 59.3096 167.008 59.4062 167.369 59.6234C167.73 59.8407 168.019 60.1545 168.212 60.5407C168.404 60.9269 168.5 61.4097 168.5 61.9408C168.5 62.4718 168.404 62.9546 168.212 63.3408C168.019 63.7271 167.73 64.0409 167.369 64.2581C167.008 64.4512 166.574 64.5719 166.093 64.5719ZM166.093 63.8719C166.574 63.8719 166.936 63.7029 167.224 63.365C167.513 63.027 167.658 62.5443 167.658 61.9166C167.658 61.289 167.513 60.8062 167.224 60.4683C166.936 60.1304 166.55 59.9614 166.093 59.9614C165.611 59.9614 165.226 60.1304 164.937 60.4683C164.648 60.8062 164.504 61.289 164.504 61.9166C164.504 62.5443 164.648 63.027 164.937 63.365C165.226 63.7029 165.611 63.8719 166.093 63.8719ZM170.234 64.5478C169.945 64.5478 169.8 64.403 169.8 64.1133V59.7441C169.8 59.4545 169.945 59.3096 170.21 59.3096C170.499 59.3096 170.619 59.4545 170.619 59.7441V60.2993C170.763 59.9855 170.98 59.72 171.269 59.551C171.558 59.382 171.919 59.2855 172.304 59.2614C172.521 59.2372 172.641 59.3579 172.665 59.5993C172.689 59.8407 172.569 59.9855 172.28 60.0097L172.112 60.0338C171.63 60.0821 171.269 60.2269 171.004 60.4924C170.763 60.758 170.619 61.1201 170.619 61.5787V64.1133C170.643 64.403 170.499 64.5478 170.234 64.5478ZM176.83 64.4754C176.517 64.4754 176.349 64.3064 176.349 63.9926V57.5475C176.349 57.2337 176.517 57.0647 176.83 57.0647H179.31C180.08 57.0647 180.658 57.2337 181.068 57.5716C181.477 57.9096 181.693 58.3923 181.693 58.9958C181.693 59.4062 181.597 59.7441 181.38 60.0338C181.164 60.3235 180.875 60.5407 180.514 60.6614C180.947 60.7821 181.284 60.9752 181.525 61.289C181.766 61.5787 181.886 61.9649 181.886 62.4236C181.886 63.0753 181.669 63.5822 181.236 63.9443C180.803 64.2823 180.201 64.4754 179.43 64.4754H176.83ZM177.191 60.3717H179.19C180.297 60.3717 180.851 59.9372 180.851 59.0682C180.851 58.1992 180.297 57.7647 179.19 57.7647H177.191V60.3717ZM177.191 63.7754H179.358C180.466 63.7754 181.043 63.3167 181.043 62.4236C181.043 61.5304 180.49 61.0718 179.358 61.0718H177.191V63.7754ZM185.594 64.5719C184.799 64.5719 184.149 64.3306 183.692 63.8719C183.234 63.3891 182.994 62.7615 182.994 61.9408C182.994 61.4097 183.09 60.9511 183.306 60.5407C183.523 60.1304 183.812 59.8165 184.173 59.5993C184.534 59.382 184.968 59.2614 185.449 59.2614C186.147 59.2614 186.677 59.4786 187.062 59.9372C187.447 60.3717 187.64 60.9994 187.64 61.7718C187.64 61.9891 187.52 62.0856 187.279 62.0856H183.812C183.836 62.665 184.005 63.0995 184.318 63.4133C184.631 63.7271 185.04 63.8719 185.594 63.8719C185.834 63.8719 186.051 63.8478 186.292 63.7754C186.533 63.7271 186.749 63.6064 186.99 63.4615C187.158 63.365 187.279 63.3408 187.399 63.3891C187.496 63.4615 187.568 63.5581 187.568 63.6788C187.568 63.7995 187.496 63.9202 187.351 64.0167C187.11 64.1857 186.845 64.3064 186.533 64.403C186.22 64.5237 185.907 64.5719 185.594 64.5719ZM185.473 59.9131C184.992 59.9131 184.607 60.0579 184.342 60.3717C184.053 60.6614 183.908 61.0718 183.86 61.5546H186.942C186.918 61.0476 186.797 60.6373 186.533 60.3476C186.268 60.0579 185.931 59.9131 185.473 59.9131ZM190.914 64.5719C190.312 64.5719 189.855 64.403 189.566 64.0892C189.277 63.7754 189.109 63.3167 189.109 62.7132V60.0338H188.41C188.17 60.0338 188.049 59.9131 188.049 59.6959C188.049 59.4786 188.17 59.382 188.41 59.382H189.109V58.1751C189.109 57.8854 189.253 57.7406 189.542 57.7406C189.831 57.7406 189.951 57.8854 189.951 58.1751V59.382H191.275C191.516 59.382 191.636 59.4786 191.636 59.6959C191.636 59.9131 191.516 60.0338 191.275 60.0338H189.951V62.6167C189.951 63.027 190.023 63.3167 190.192 63.534C190.36 63.7512 190.625 63.8478 191.01 63.8478C191.155 63.8478 191.251 63.8236 191.348 63.7995C191.444 63.7753 191.516 63.7512 191.588 63.7512C191.66 63.7512 191.709 63.7753 191.757 63.8236C191.805 63.8719 191.829 63.9685 191.829 64.065C191.829 64.1374 191.805 64.234 191.781 64.3064C191.757 64.3788 191.685 64.4271 191.612 64.4512C191.54 64.4754 191.42 64.4995 191.275 64.5237C191.155 64.5478 191.035 64.5719 190.914 64.5719Z" fill="#353535"/>
<path d="M194.453 64.5719C193.851 64.5719 193.394 64.4029 193.105 64.0891C192.816 63.7753 192.648 63.3167 192.648 62.7132V60.0338H191.95C191.709 60.0338 191.588 59.9131 191.588 59.6958C191.588 59.4786 191.709 59.382 191.95 59.382H192.648V58.1751C192.648 57.8854 192.792 57.7406 193.081 57.7406C193.37 57.7406 193.49 57.8854 193.49 58.1751V59.382H194.814C195.055 59.382 195.176 59.4786 195.176 59.6958C195.176 59.9131 195.055 60.0338 194.814 60.0338H193.49V62.6166C193.49 63.027 193.563 63.3167 193.731 63.5339C193.9 63.7512 194.164 63.8477 194.55 63.8477C194.694 63.8477 194.79 63.8236 194.887 63.7995C194.983 63.7753 195.055 63.7512 195.127 63.7512C195.2 63.7512 195.248 63.7753 195.296 63.8236C195.344 63.8719 195.368 63.9684 195.368 64.065C195.368 64.1374 195.344 64.234 195.32 64.3064C195.296 64.3788 195.224 64.4271 195.151 64.4512C195.079 64.4753 194.959 64.4995 194.814 64.5236C194.67 64.5478 194.55 64.5719 194.453 64.5719ZM198.305 64.5719C197.511 64.5719 196.861 64.3305 196.403 63.8719C195.946 63.3891 195.705 62.7615 195.705 61.9407C195.705 61.4097 195.801 60.951 196.018 60.5407C196.235 60.1303 196.524 59.8165 196.885 59.5993C197.246 59.382 197.679 59.2613 198.161 59.2613C198.859 59.2613 199.389 59.4786 199.774 59.9372C200.159 60.3717 200.352 60.9993 200.352 61.7718C200.352 61.989 200.231 62.0856 199.991 62.0856H196.524C196.548 62.6649 196.716 63.0994 197.029 63.4132C197.342 63.727 197.752 63.8719 198.305 63.8719C198.546 63.8719 198.763 63.8477 199.003 63.7753C199.244 63.727 199.461 63.6063 199.702 63.4615C199.87 63.3649 199.991 63.3408 200.111 63.3891C200.207 63.4615 200.279 63.5581 200.279 63.6788C200.279 63.7995 200.207 63.9202 200.063 64.0167C199.822 64.1857 199.557 64.3064 199.244 64.4029C198.907 64.5236 198.594 64.5719 198.305 64.5719ZM198.161 59.9131C197.679 59.9131 197.294 60.0579 197.029 60.3717C196.74 60.6614 196.596 61.0717 196.548 61.5545H199.629C199.605 61.0476 199.485 60.6372 199.22 60.3476C198.979 60.0579 198.618 59.9131 198.161 59.9131ZM202.013 64.5478C201.724 64.5478 201.579 64.4029 201.579 64.1133V59.7441C201.579 59.4544 201.724 59.3096 201.989 59.3096C202.278 59.3096 202.398 59.4544 202.398 59.7441V60.2993C202.542 59.9855 202.759 59.72 203.048 59.551C203.337 59.382 203.698 59.2855 204.083 59.2613C204.3 59.2372 204.42 59.3579 204.444 59.5993C204.468 59.8407 204.348 59.9855 204.059 60.0096L203.891 60.0338C203.409 60.082 203.048 60.2269 202.783 60.4924C202.542 60.7579 202.398 61.12 202.398 61.5787V64.1133C202.446 64.4029 202.302 64.5478 202.013 64.5478ZM208.561 64.5478C208.272 64.5478 208.128 64.4029 208.128 64.0891V57.4509C208.128 57.1612 208.272 56.9922 208.561 56.9922C208.85 56.9922 208.995 57.1371 208.995 57.4509V60.3476H213.424V57.4509C213.424 57.1612 213.569 56.9922 213.858 56.9922C214.147 56.9922 214.291 57.1371 214.291 57.4509V64.0891C214.291 64.3788 214.147 64.5478 213.858 64.5478C213.569 64.5478 213.424 64.4029 213.424 64.0891V61.0959H208.995V64.0891C208.995 64.4029 208.85 64.5478 208.561 64.5478ZM218.263 64.5719C217.469 64.5719 216.819 64.3305 216.361 63.8719C215.904 63.3891 215.663 62.7615 215.663 61.9407C215.663 61.4097 215.76 60.951 215.976 60.5407C216.193 60.1303 216.482 59.8165 216.843 59.5993C217.204 59.382 217.637 59.2613 218.119 59.2613C218.817 59.2613 219.347 59.4786 219.732 59.9372C220.117 60.3717 220.31 60.9993 220.31 61.7718C220.31 61.989 220.189 62.0856 219.949 62.0856H216.482C216.506 62.6649 216.674 63.0994 216.987 63.4132C217.3 63.727 217.71 63.8719 218.263 63.8719C218.504 63.8719 218.721 63.8477 218.962 63.7753C219.202 63.727 219.419 63.6063 219.66 63.4615C219.828 63.3649 219.949 63.3408 220.069 63.3891C220.165 63.4615 220.238 63.5581 220.238 63.6788C220.238 63.7995 220.165 63.9202 220.021 64.0167C219.78 64.1857 219.515 64.3064 219.202 64.4029C218.889 64.5236 218.576 64.5719 218.263 64.5719ZM218.143 59.9131C217.662 59.9131 217.276 60.0579 217.012 60.3717C216.723 60.6614 216.578 61.0717 216.53 61.5545H219.612C219.588 61.0476 219.467 60.6372 219.202 60.3476C218.938 60.0579 218.6 59.9131 218.143 59.9131ZM223.151 64.5719C222.814 64.5719 222.501 64.4995 222.212 64.3788C221.923 64.2581 221.73 64.065 221.562 63.8236C221.393 63.5822 221.321 63.3167 221.321 63.027C221.321 62.6649 221.417 62.3511 221.61 62.1339C221.802 61.9166 222.115 61.7718 222.573 61.6752C223.006 61.5787 223.632 61.5304 224.378 61.5304H224.715V61.2166C224.715 60.7821 224.619 60.4683 224.451 60.2752C224.282 60.082 223.993 59.9855 223.608 59.9855C223.367 59.9855 223.127 60.0096 222.862 60.082C222.621 60.1545 222.356 60.251 222.091 60.3958C221.971 60.4683 221.875 60.4683 221.802 60.4441C221.73 60.3958 221.658 60.3476 221.634 60.251C221.61 60.1545 221.61 60.082 221.634 59.9855C221.658 59.8889 221.73 59.8165 221.827 59.7682C222.115 59.6234 222.428 59.5027 222.741 59.4303C223.054 59.3579 223.343 59.3337 223.608 59.3337C224.258 59.3337 224.74 59.5027 225.077 59.8165C225.39 60.1303 225.558 60.6372 225.558 61.3131V64.1615C225.558 64.4512 225.438 64.596 225.173 64.596C224.908 64.596 224.764 64.4512 224.764 64.1615V63.6546C224.619 63.9443 224.427 64.1857 224.162 64.3788C223.849 64.4753 223.512 64.5719 223.151 64.5719ZM223.295 63.9201C223.704 63.9201 224.065 63.7753 224.33 63.4856C224.595 63.196 224.74 62.8339 224.74 62.3752V62.0614H224.378C223.825 62.0614 223.367 62.0856 223.054 62.1339C222.741 62.1821 222.501 62.2787 222.38 62.3994C222.26 62.5201 222.188 62.7132 222.188 62.9305C222.188 63.2201 222.284 63.4615 222.477 63.6305C222.669 63.8236 222.934 63.9201 223.295 63.9201ZM228.64 64.5719C228.134 64.5719 227.749 64.4271 227.484 64.1133C227.219 63.7995 227.075 63.365 227.075 62.7856V57.4267C227.075 57.1371 227.219 56.9922 227.484 56.9922C227.773 56.9922 227.917 57.1371 227.917 57.4267V62.7132C227.917 63.4615 228.206 63.8236 228.808 63.8236H229.121C229.193 63.8236 229.242 63.8236 229.29 63.8719C229.314 63.9201 229.338 63.9926 229.338 64.1133C229.338 64.3547 229.218 64.4753 228.977 64.5236C228.929 64.5478 228.856 64.5478 228.808 64.5478C228.76 64.5719 228.688 64.5719 228.64 64.5719ZM232.131 64.5719C231.529 64.5719 231.071 64.4029 230.782 64.0891C230.493 63.7753 230.325 63.3167 230.325 62.7132V60.0338H229.627C229.386 60.0338 229.266 59.9131 229.266 59.6958C229.266 59.4786 229.386 59.382 229.627 59.382H230.325V58.1751C230.325 57.8854 230.469 57.7406 230.758 57.7406C231.047 57.7406 231.168 57.8854 231.168 58.1751V59.382H232.492C232.732 59.382 232.853 59.4786 232.853 59.6958C232.853 59.9131 232.732 60.0338 232.492 60.0338H231.168V62.6166C231.168 63.027 231.24 63.3167 231.408 63.5339C231.577 63.7512 231.842 63.8477 232.227 63.8477C232.371 63.8477 232.468 63.8236 232.564 63.7995C232.66 63.7753 232.732 63.7512 232.805 63.7512C232.877 63.7512 232.925 63.7753 232.973 63.8236C233.021 63.8719 233.045 63.9684 233.045 64.065C233.045 64.1374 233.021 64.234 232.997 64.3064C232.973 64.3788 232.901 64.4271 232.829 64.4512C232.757 64.4753 232.636 64.4995 232.492 64.5236C232.371 64.5478 232.251 64.5719 232.131 64.5719ZM234.249 64.5478C233.96 64.5478 233.84 64.4029 233.84 64.1133V57.4509C233.84 57.1612 233.984 57.0164 234.249 57.0164C234.538 57.0164 234.683 57.1612 234.683 57.4509V60.2269C234.851 59.9131 235.092 59.6958 235.381 59.5268C235.694 59.3579 236.031 59.2855 236.392 59.2855C237.596 59.2855 238.197 59.9613 238.197 61.289V64.0891C238.197 64.3788 238.053 64.5236 237.788 64.5236C237.499 64.5236 237.355 64.3788 237.355 64.0891V61.3373C237.355 60.8545 237.259 60.5165 237.066 60.2993C236.873 60.082 236.584 59.9613 236.175 59.9613C235.718 59.9613 235.333 60.1062 235.068 60.3958C234.803 60.6855 234.658 61.0717 234.658 61.5545V64.0891C234.658 64.4029 234.514 64.5478 234.249 64.5478Z" fill="#353535"/>
<path d="M245.709 28.8703C245.107 28.8703 244.577 28.7737 244.072 28.5565C243.566 28.3392 243.133 28.0496 242.748 27.6633C242.362 27.2771 242.074 26.8426 241.857 26.3357C241.64 25.8288 241.544 25.2736 241.544 24.6942C241.544 24.1149 241.64 23.5597 241.857 23.0528C242.074 22.5459 242.362 22.1114 242.748 21.7251C243.133 21.3389 243.566 21.0492 244.072 20.832C244.577 20.6147 245.131 20.5182 245.709 20.5182C246.311 20.5182 246.84 20.6147 247.346 20.832C247.852 21.0492 248.285 21.3389 248.67 21.7251C249.055 22.1114 249.344 22.5459 249.561 23.0528C249.778 23.5597 249.874 24.1149 249.874 24.6942C249.874 25.2736 249.778 25.8288 249.561 26.3357C249.344 26.8426 249.055 27.2771 248.67 27.6633C248.285 28.0496 247.852 28.3392 247.346 28.5565C246.84 28.7496 246.311 28.8703 245.709 28.8703ZM245.709 28.2427C246.383 28.2427 246.985 28.0737 247.515 27.7599C248.044 27.4461 248.453 27.0116 248.766 26.4805C249.079 25.9495 249.224 25.346 249.224 24.6701C249.224 23.9942 249.079 23.3907 248.766 22.8597C248.453 22.3286 248.044 21.8941 247.515 21.5803C246.985 21.2665 246.383 21.1217 245.709 21.1217C245.035 21.1217 244.433 21.2665 243.903 21.5803C243.374 21.8941 242.94 22.3286 242.651 22.8597C242.338 23.3907 242.194 23.9942 242.194 24.6701C242.194 25.346 242.338 25.9495 242.651 26.4805C242.964 27.0116 243.374 27.4461 243.903 27.7599C244.433 28.0978 245.035 28.2427 245.709 28.2427Z" fill="#F40009"/>
<path d="M244.168 26.0943C244.072 26.0943 244 26.0701 243.951 26.0219C243.903 25.9736 243.879 25.9012 243.879 25.8046V23.8494H243.205C243.037 23.8494 242.964 23.7769 242.964 23.608C242.964 23.439 243.037 23.3666 243.205 23.3666H245.179C245.348 23.3666 245.42 23.439 245.42 23.608C245.42 23.7769 245.348 23.8494 245.179 23.8494H244.505V25.8046C244.505 25.9012 244.481 25.9736 244.433 26.0219C244.337 26.046 244.264 26.0943 244.168 26.0943ZM245.926 26.0943C245.829 26.0943 245.781 26.0701 245.733 26.0219C245.685 25.9736 245.661 25.9012 245.661 25.8046V23.5597C245.661 23.4631 245.685 23.3907 245.733 23.3424C245.781 23.2942 245.853 23.27 245.95 23.27C246.022 23.27 246.094 23.2942 246.142 23.3183C246.19 23.3424 246.239 23.3907 246.263 23.4631L247.081 24.9839L247.9 23.4631C247.948 23.3907 247.972 23.3424 248.02 23.3183C248.068 23.2942 248.116 23.27 248.189 23.27C248.285 23.27 248.333 23.2942 248.381 23.3424C248.429 23.3907 248.453 23.4631 248.453 23.5597V25.8046C248.453 25.9977 248.357 26.0943 248.189 26.0943C247.996 26.0943 247.924 25.9977 247.924 25.8046V24.3804L247.298 25.5149C247.274 25.5632 247.226 25.6115 247.202 25.6356C247.177 25.6598 247.129 25.6839 247.057 25.6839C247.009 25.6839 246.961 25.6598 246.913 25.6356C246.864 25.6115 246.84 25.5632 246.816 25.5149L246.19 24.3804V25.8046C246.19 25.9977 246.118 26.0943 245.926 26.0943Z" fill="#F40009"/>
</g>
<defs>
<clipPath id="clip0_5_2817">
<rect width="257" height="75" fill="white"/>
</clipPath>
</defs>
</svg>
